<svg xmlns="http://www.w3.org/2000/svg" width="187.695" height="133.123" fill="none" stroke="#fff" stroke-miterlimit="10" xmlns:v="https://vecta.io/nano"><rect width="80.012" height="8.868" rx="4.434" x=".5" y="11.873"/><rect width="80.012" height="8.868" rx="4.434" x=".5" y=".5"/><rect width="80.012" height="8.868" rx="4.434" x=".5" y="34.241"/><rect width="80.012" height="8.868" rx="4.434" x=".5" y="22.868"/><rect width="80.012" height="8.868" rx="4.434" x="53.841" y="56.623"/><rect width="80.012" height="8.868" rx="4.434" x="53.841" y="45.251"/><rect width="80.012" height="8.868" rx="4.434" x="53.841" y="78.991"/><rect width="80.012" height="8.868" rx="4.434" x="53.841" y="67.619"/><rect width="80.012" height="8.868" rx="4.434" x=".5" y="101.387"/><rect width="80.012" height="8.868" rx="4.434" x=".5" y="90.015"/><rect width="80.012" height="8.868" rx="4.434" x=".5" y="123.755"/><rect width="80.012" height="8.868" rx="4.434" x=".5" y="112.383"/><rect width="26.671" height="8.868" rx="4.434" x=".5" y="56.623"/><rect width="26.671" height="8.868" rx="4.434" x=".5" y="45.251"/><rect width="26.671" height="8.868" rx="4.434" x=".5" y="79.003"/><rect width="26.671" height="8.868" rx="4.434" x=".5" y="67.631"/><rect width="80.012" height="8.868" rx="4.434" x="107.183" y="11.873"/><rect width="80.012" height="8.868" rx="4.434" x="107.183" y=".5"/><rect width="80.012" height="8.868" rx="4.434" x="107.183" y="34.241"/><rect width="80.012" height="8.868" rx="4.434" x="107.183" y="22.868"/><rect width="80.012" height="8.868" rx="4.434" x="107.183" y="101.387"/><rect width="80.012" height="8.868" rx="4.434" x="107.183" y="90.015"/><rect width="80.012" height="8.868" rx="4.434" x="107.183" y="123.755"/><rect width="80.012" height="8.868" rx="4.434" x="107.183" y="112.383"/><rect width="26.671" height="8.868" rx="4.434" x="160.524" y="56.623"/><rect width="26.671" height="8.868" rx="4.434" x="160.524" y="45.251"/><rect width="26.671" height="8.868" rx="4.434" x="160.524" y="79.003"/><rect width="26.671" height="8.868" rx="4.434" x="160.524" y="67.631"/></svg>