<svg xmlns="http://www.w3.org/2000/svg" width="2223.702" height="13.379" viewBox="0 0 2223.702 13.379">
  <g id="Group_403" data-name="Group 403" transform="translate(147.702 -4328.8)">
    <g id="Group_402" data-name="Group 402">
      <g id="Group_378" data-name="Group 378">
        <g id="Group_337" data-name="Group 337">
          <rect id="Rectangle_546" data-name="Rectangle 546" width="17.79" height="5.916" rx="2.958" transform="translate(-112.12 4328.8)" fill="#db202d"/>
          <rect id="Rectangle_547" data-name="Rectangle 547" width="17.79" height="5.916" rx="2.958" transform="translate(-112.121 4336.263)" fill="#db202d"/>
        </g>
        <g id="Group_338" data-name="Group 338">
          <rect id="Rectangle_548" data-name="Rectangle 548" width="17.79" height="5.916" rx="2.958" transform="translate(-147.701 4328.8)" fill="#db202d"/>
          <rect id="Rectangle_549" data-name="Rectangle 549" width="17.79" height="5.916" rx="2.958" transform="translate(-147.702 4336.263)" fill="#db202d"/>
        </g>
        <g id="Group_339" data-name="Group 339">
          <rect id="Rectangle_550" data-name="Rectangle 550" width="17.79" height="5.916" rx="2.958" transform="translate(-76.539 4328.8)" fill="#db202d"/>
          <rect id="Rectangle_551" data-name="Rectangle 551" width="17.79" height="5.916" rx="2.958" transform="translate(-76.54 4336.263)" fill="#db202d"/>
        </g>
        <g id="Group_340" data-name="Group 340">
          <rect id="Rectangle_552" data-name="Rectangle 552" width="17.79" height="5.916" rx="2.958" transform="translate(-40.958 4328.8)" fill="#db202d"/>
          <rect id="Rectangle_553" data-name="Rectangle 553" width="17.79" height="5.916" rx="2.958" transform="translate(-40.959 4336.263)" fill="#db202d"/>
        </g>
        <g id="Group_341" data-name="Group 341">
          <rect id="Rectangle_554" data-name="Rectangle 554" width="17.79" height="5.916" rx="2.958" transform="translate(-5.377 4328.8)" fill="#db202d"/>
          <rect id="Rectangle_555" data-name="Rectangle 555" width="17.79" height="5.916" rx="2.958" transform="translate(-5.378 4336.263)" fill="#db202d"/>
        </g>
        <g id="Group_342" data-name="Group 342">
          <rect id="Rectangle_556" data-name="Rectangle 556" width="17.79" height="5.916" rx="2.958" transform="translate(30.204 4328.8)" fill="#db202d"/>
          <rect id="Rectangle_557" data-name="Rectangle 557" width="17.79" height="5.916" rx="2.958" transform="translate(30.203 4336.263)" fill="#db202d"/>
        </g>
        <g id="Group_343" data-name="Group 343">
          <rect id="Rectangle_558" data-name="Rectangle 558" width="17.79" height="5.916" rx="2.958" transform="translate(65.784 4328.8)" fill="#db202d"/>
          <rect id="Rectangle_559" data-name="Rectangle 559" width="17.79" height="5.916" rx="2.958" transform="translate(65.784 4336.263)" fill="#db202d"/>
        </g>
        <g id="Group_344" data-name="Group 344">
          <rect id="Rectangle_560" data-name="Rectangle 560" width="17.79" height="5.916" rx="2.958" transform="translate(101.365 4328.8)" fill="#db202d"/>
          <rect id="Rectangle_561" data-name="Rectangle 561" width="17.79" height="5.916" rx="2.958" transform="translate(101.365 4336.263)" fill="#db202d"/>
        </g>
        <g id="Group_345" data-name="Group 345">
          <rect id="Rectangle_562" data-name="Rectangle 562" width="17.79" height="5.916" rx="2.958" transform="translate(136.946 4328.8)" fill="#db202d"/>
          <rect id="Rectangle_563" data-name="Rectangle 563" width="17.79" height="5.916" rx="2.958" transform="translate(136.945 4336.263)" fill="#db202d"/>
        </g>
        <g id="Group_346" data-name="Group 346">
          <rect id="Rectangle_564" data-name="Rectangle 564" width="17.79" height="5.916" rx="2.958" transform="translate(172.527 4328.8)" fill="#db202d"/>
          <rect id="Rectangle_565" data-name="Rectangle 565" width="17.79" height="5.916" rx="2.958" transform="translate(172.526 4336.263)" fill="#db202d"/>
        </g>
        <g id="Group_347" data-name="Group 347">
          <rect id="Rectangle_566" data-name="Rectangle 566" width="17.79" height="5.916" rx="2.958" transform="translate(208.108 4328.8)" fill="#db202d"/>
          <rect id="Rectangle_567" data-name="Rectangle 567" width="17.79" height="5.916" rx="2.958" transform="translate(208.107 4336.263)" fill="#db202d"/>
        </g>
        <g id="Group_348" data-name="Group 348">
          <rect id="Rectangle_568" data-name="Rectangle 568" width="17.79" height="5.916" rx="2.958" transform="translate(243.689 4328.8)" fill="#db202d"/>
          <rect id="Rectangle_569" data-name="Rectangle 569" width="17.79" height="5.916" rx="2.958" transform="translate(243.688 4336.263)" fill="#db202d"/>
        </g>
        <g id="Group_349" data-name="Group 349">
          <rect id="Rectangle_570" data-name="Rectangle 570" width="17.79" height="5.916" rx="2.958" transform="translate(279.27 4328.8)" fill="#db202d"/>
          <rect id="Rectangle_571" data-name="Rectangle 571" width="17.79" height="5.916" rx="2.958" transform="translate(279.269 4336.263)" fill="#db202d"/>
        </g>
        <g id="Group_350" data-name="Group 350">
          <rect id="Rectangle_572" data-name="Rectangle 572" width="17.79" height="5.916" rx="2.958" transform="translate(314.851 4328.8)" fill="#db202d"/>
          <rect id="Rectangle_573" data-name="Rectangle 573" width="17.79" height="5.916" rx="2.958" transform="translate(314.85 4336.263)" fill="#db202d"/>
        </g>
        <g id="Group_351" data-name="Group 351">
          <rect id="Rectangle_574" data-name="Rectangle 574" width="17.79" height="5.916" rx="2.958" transform="translate(350.431 4328.8)" fill="#db202d"/>
          <rect id="Rectangle_575" data-name="Rectangle 575" width="17.79" height="5.916" rx="2.958" transform="translate(350.431 4336.263)" fill="#db202d"/>
        </g>
        <g id="Group_352" data-name="Group 352">
          <rect id="Rectangle_576" data-name="Rectangle 576" width="17.79" height="5.916" rx="2.958" transform="translate(386.012 4328.8)" fill="#db202d"/>
          <rect id="Rectangle_577" data-name="Rectangle 577" width="17.79" height="5.916" rx="2.958" transform="translate(386.012 4336.263)" fill="#db202d"/>
        </g>
        <g id="Group_353" data-name="Group 353">
          <rect id="Rectangle_578" data-name="Rectangle 578" width="17.79" height="5.916" rx="2.958" transform="translate(421.593 4328.8)" fill="#db202d"/>
          <rect id="Rectangle_579" data-name="Rectangle 579" width="17.79" height="5.916" rx="2.958" transform="translate(421.592 4336.263)" fill="#db202d"/>
        </g>
        <g id="Group_354" data-name="Group 354">
          <rect id="Rectangle_580" data-name="Rectangle 580" width="17.79" height="5.916" rx="2.958" transform="translate(457.174 4328.8)" fill="#db202d"/>
          <rect id="Rectangle_581" data-name="Rectangle 581" width="17.79" height="5.916" rx="2.958" transform="translate(457.173 4336.263)" fill="#db202d"/>
        </g>
        <g id="Group_355" data-name="Group 355">
          <rect id="Rectangle_582" data-name="Rectangle 582" width="17.79" height="5.916" rx="2.958" transform="translate(492.755 4328.8)" fill="#db202d"/>
          <rect id="Rectangle_583" data-name="Rectangle 583" width="17.79" height="5.916" rx="2.958" transform="translate(492.754 4336.263)" fill="#db202d"/>
        </g>
        <g id="Group_356" data-name="Group 356">
          <rect id="Rectangle_584" data-name="Rectangle 584" width="17.79" height="5.916" rx="2.958" transform="translate(528.336 4328.8)" fill="#db202d"/>
          <rect id="Rectangle_585" data-name="Rectangle 585" width="17.79" height="5.916" rx="2.958" transform="translate(528.335 4336.263)" fill="#db202d"/>
        </g>
        <g id="Group_357" data-name="Group 357">
          <rect id="Rectangle_586" data-name="Rectangle 586" width="17.79" height="5.916" rx="2.958" transform="translate(563.917 4328.8)" fill="#db202d"/>
          <rect id="Rectangle_587" data-name="Rectangle 587" width="17.79" height="5.916" rx="2.958" transform="translate(563.916 4336.263)" fill="#db202d"/>
        </g>
        <g id="Group_358" data-name="Group 358">
          <rect id="Rectangle_588" data-name="Rectangle 588" width="17.79" height="5.916" rx="2.958" transform="translate(599.498 4328.8)" fill="#db202d"/>
          <rect id="Rectangle_589" data-name="Rectangle 589" width="17.79" height="5.916" rx="2.958" transform="translate(599.497 4336.263)" fill="#db202d"/>
        </g>
        <g id="Group_359" data-name="Group 359">
          <rect id="Rectangle_590" data-name="Rectangle 590" width="17.79" height="5.916" rx="2.958" transform="translate(635.078 4328.8)" fill="#db202d"/>
          <rect id="Rectangle_591" data-name="Rectangle 591" width="17.79" height="5.916" rx="2.958" transform="translate(635.078 4336.263)" fill="#db202d"/>
        </g>
        <g id="Group_360" data-name="Group 360">
          <rect id="Rectangle_592" data-name="Rectangle 592" width="17.79" height="5.916" rx="2.958" transform="translate(670.659 4328.8)" fill="#db202d"/>
          <rect id="Rectangle_593" data-name="Rectangle 593" width="17.79" height="5.916" rx="2.958" transform="translate(670.659 4336.263)" fill="#db202d"/>
        </g>
        <g id="Group_361" data-name="Group 361">
          <rect id="Rectangle_594" data-name="Rectangle 594" width="17.79" height="5.916" rx="2.958" transform="translate(706.24 4328.8)" fill="#db202d"/>
          <rect id="Rectangle_595" data-name="Rectangle 595" width="17.79" height="5.916" rx="2.958" transform="translate(706.24 4336.263)" fill="#db202d"/>
        </g>
        <g id="Group_362" data-name="Group 362">
          <rect id="Rectangle_596" data-name="Rectangle 596" width="17.79" height="5.916" rx="2.958" transform="translate(741.821 4328.8)" fill="#db202d"/>
          <rect id="Rectangle_597" data-name="Rectangle 597" width="17.79" height="5.916" rx="2.958" transform="translate(741.82 4336.263)" fill="#db202d"/>
        </g>
        <g id="Group_363" data-name="Group 363">
          <rect id="Rectangle_598" data-name="Rectangle 598" width="17.79" height="5.916" rx="2.958" transform="translate(777.402 4328.8)" fill="#db202d"/>
          <rect id="Rectangle_599" data-name="Rectangle 599" width="17.79" height="5.916" rx="2.958" transform="translate(777.401 4336.263)" fill="#db202d"/>
        </g>
        <g id="Group_364" data-name="Group 364">
          <rect id="Rectangle_600" data-name="Rectangle 600" width="17.79" height="5.916" rx="2.958" transform="translate(812.983 4328.8)" fill="#db202d"/>
          <rect id="Rectangle_601" data-name="Rectangle 601" width="17.79" height="5.916" rx="2.958" transform="translate(812.982 4336.263)" fill="#db202d"/>
        </g>
        <g id="Group_365" data-name="Group 365">
          <rect id="Rectangle_602" data-name="Rectangle 602" width="17.79" height="5.916" rx="2.958" transform="translate(848.564 4328.8)" fill="#db202d"/>
          <rect id="Rectangle_603" data-name="Rectangle 603" width="17.79" height="5.916" rx="2.958" transform="translate(848.563 4336.263)" fill="#db202d"/>
        </g>
        <g id="Group_366" data-name="Group 366">
          <rect id="Rectangle_604" data-name="Rectangle 604" width="17.79" height="5.916" rx="2.958" transform="translate(884.145 4328.8)" fill="#db202d"/>
          <rect id="Rectangle_605" data-name="Rectangle 605" width="17.79" height="5.916" rx="2.958" transform="translate(884.144 4336.263)" fill="#db202d"/>
        </g>
        <g id="Group_367" data-name="Group 367">
          <rect id="Rectangle_606" data-name="Rectangle 606" width="17.79" height="5.916" rx="2.958" transform="translate(919.725 4328.8)" fill="#db202d"/>
          <rect id="Rectangle_607" data-name="Rectangle 607" width="17.79" height="5.916" rx="2.958" transform="translate(919.725 4336.263)" fill="#db202d"/>
        </g>
        <g id="Group_368" data-name="Group 368">
          <rect id="Rectangle_608" data-name="Rectangle 608" width="17.79" height="5.916" rx="2.958" transform="translate(955.306 4328.8)" fill="#db202d"/>
          <rect id="Rectangle_609" data-name="Rectangle 609" width="17.79" height="5.916" rx="2.958" transform="translate(955.306 4336.263)" fill="#db202d"/>
        </g>
        <g id="Group_369" data-name="Group 369">
          <rect id="Rectangle_610" data-name="Rectangle 610" width="17.79" height="5.916" rx="2.958" transform="translate(990.887 4328.8)" fill="#db202d"/>
          <rect id="Rectangle_611" data-name="Rectangle 611" width="17.79" height="5.916" rx="2.958" transform="translate(990.886 4336.263)" fill="#db202d"/>
        </g>
        <g id="Group_370" data-name="Group 370">
          <rect id="Rectangle_612" data-name="Rectangle 612" width="17.79" height="5.916" rx="2.958" transform="translate(1026.468 4328.8)" fill="#db202d"/>
          <rect id="Rectangle_613" data-name="Rectangle 613" width="17.79" height="5.916" rx="2.958" transform="translate(1026.467 4336.263)" fill="#db202d"/>
        </g>
        <g id="Group_371" data-name="Group 371">
          <rect id="Rectangle_614" data-name="Rectangle 614" width="17.79" height="5.916" rx="2.958" transform="translate(1062.049 4328.8)" fill="#db202d"/>
          <rect id="Rectangle_615" data-name="Rectangle 615" width="17.79" height="5.916" rx="2.958" transform="translate(1062.048 4336.263)" fill="#db202d"/>
        </g>
        <g id="Group_372" data-name="Group 372">
          <rect id="Rectangle_616" data-name="Rectangle 616" width="17.79" height="5.916" rx="2.958" transform="translate(1097.63 4328.8)" fill="#db202d"/>
          <rect id="Rectangle_617" data-name="Rectangle 617" width="17.79" height="5.916" rx="2.958" transform="translate(1097.629 4336.263)" fill="#db202d"/>
        </g>
        <g id="Group_373" data-name="Group 373">
          <rect id="Rectangle_618" data-name="Rectangle 618" width="17.79" height="5.916" rx="2.958" transform="translate(1133.211 4328.8)" fill="#db202d"/>
          <rect id="Rectangle_619" data-name="Rectangle 619" width="17.79" height="5.916" rx="2.958" transform="translate(1133.21 4336.263)" fill="#db202d"/>
        </g>
        <g id="Group_374" data-name="Group 374">
          <rect id="Rectangle_620" data-name="Rectangle 620" width="17.79" height="5.916" rx="2.958" transform="translate(1168.792 4328.8)" fill="#db202d"/>
          <rect id="Rectangle_621" data-name="Rectangle 621" width="17.79" height="5.916" rx="2.958" transform="translate(1168.791 4336.263)" fill="#db202d"/>
        </g>
        <g id="Group_375" data-name="Group 375">
          <rect id="Rectangle_622" data-name="Rectangle 622" width="17.79" height="5.916" rx="2.958" transform="translate(1204.373 4328.8)" fill="#db202d"/>
          <rect id="Rectangle_623" data-name="Rectangle 623" width="17.79" height="5.916" rx="2.958" transform="translate(1204.372 4336.263)" fill="#db202d"/>
        </g>
        <g id="Group_376" data-name="Group 376">
          <rect id="Rectangle_624" data-name="Rectangle 624" width="17.79" height="5.916" rx="2.958" transform="translate(1239.953 4328.8)" fill="#db202d"/>
          <rect id="Rectangle_625" data-name="Rectangle 625" width="17.79" height="5.916" rx="2.958" transform="translate(1239.953 4336.263)" fill="#db202d"/>
        </g>
        <g id="Group_377" data-name="Group 377">
          <rect id="Rectangle_626" data-name="Rectangle 626" width="17.79" height="5.916" rx="2.958" transform="translate(1275.534 4328.8)" fill="#db202d"/>
          <rect id="Rectangle_627" data-name="Rectangle 627" width="17.79" height="5.916" rx="2.958" transform="translate(1275.534 4336.263)" fill="#db202d"/>
        </g>
      </g>
      <g id="Group_401" data-name="Group 401">
        <g id="Group_379" data-name="Group 379">
          <rect id="Rectangle_628" data-name="Rectangle 628" width="17.79" height="5.916" rx="2.958" transform="translate(1346.696 4328.8)" fill="#db202d"/>
          <rect id="Rectangle_629" data-name="Rectangle 629" width="17.79" height="5.916" rx="2.958" transform="translate(1346.696 4336.263)" fill="#db202d"/>
        </g>
        <g id="Group_380" data-name="Group 380">
          <rect id="Rectangle_630" data-name="Rectangle 630" width="17.79" height="5.916" rx="2.958" transform="translate(1311.115 4328.8)" fill="#db202d"/>
          <rect id="Rectangle_631" data-name="Rectangle 631" width="17.79" height="5.916" rx="2.958" transform="translate(1311.114 4336.263)" fill="#db202d"/>
        </g>
        <g id="Group_381" data-name="Group 381">
          <rect id="Rectangle_632" data-name="Rectangle 632" width="17.79" height="5.916" rx="2.958" transform="translate(1382.277 4328.8)" fill="#db202d"/>
          <rect id="Rectangle_633" data-name="Rectangle 633" width="17.79" height="5.916" rx="2.958" transform="translate(1382.276 4336.263)" fill="#db202d"/>
        </g>
        <g id="Group_382" data-name="Group 382">
          <rect id="Rectangle_634" data-name="Rectangle 634" width="17.79" height="5.916" rx="2.958" transform="translate(1417.858 4328.8)" fill="#db202d"/>
          <rect id="Rectangle_635" data-name="Rectangle 635" width="17.79" height="5.916" rx="2.958" transform="translate(1417.857 4336.263)" fill="#db202d"/>
        </g>
        <g id="Group_383" data-name="Group 383">
          <rect id="Rectangle_636" data-name="Rectangle 636" width="17.79" height="5.916" rx="2.958" transform="translate(1453.439 4328.8)" fill="#db202d"/>
          <rect id="Rectangle_637" data-name="Rectangle 637" width="17.79" height="5.916" rx="2.958" transform="translate(1453.438 4336.263)" fill="#db202d"/>
        </g>
        <g id="Group_384" data-name="Group 384">
          <rect id="Rectangle_638" data-name="Rectangle 638" width="17.79" height="5.916" rx="2.958" transform="translate(1489.02 4328.8)" fill="#db202d"/>
          <rect id="Rectangle_639" data-name="Rectangle 639" width="17.79" height="5.916" rx="2.958" transform="translate(1489.019 4336.263)" fill="#db202d"/>
        </g>
        <g id="Group_385" data-name="Group 385">
          <rect id="Rectangle_640" data-name="Rectangle 640" width="17.79" height="5.916" rx="2.958" transform="translate(1524.601 4328.8)" fill="#db202d"/>
          <rect id="Rectangle_641" data-name="Rectangle 641" width="17.79" height="5.916" rx="2.958" transform="translate(1524.6 4336.263)" fill="#db202d"/>
        </g>
        <g id="Group_386" data-name="Group 386">
          <rect id="Rectangle_642" data-name="Rectangle 642" width="17.79" height="5.916" rx="2.958" transform="translate(1560.182 4328.8)" fill="#db202d"/>
          <rect id="Rectangle_643" data-name="Rectangle 643" width="17.79" height="5.916" rx="2.958" transform="translate(1560.181 4336.263)" fill="#db202d"/>
        </g>
        <g id="Group_387" data-name="Group 387">
          <rect id="Rectangle_644" data-name="Rectangle 644" width="17.79" height="5.916" rx="2.958" transform="translate(1595.763 4328.8)" fill="#db202d"/>
          <rect id="Rectangle_645" data-name="Rectangle 645" width="17.79" height="5.916" rx="2.958" transform="translate(1595.762 4336.263)" fill="#db202d"/>
        </g>
        <g id="Group_388" data-name="Group 388">
          <rect id="Rectangle_646" data-name="Rectangle 646" width="17.79" height="5.916" rx="2.958" transform="translate(1631.343 4328.8)" fill="#db202d"/>
          <rect id="Rectangle_647" data-name="Rectangle 647" width="17.79" height="5.916" rx="2.958" transform="translate(1631.343 4336.263)" fill="#db202d"/>
        </g>
        <g id="Group_389" data-name="Group 389">
          <rect id="Rectangle_648" data-name="Rectangle 648" width="17.79" height="5.916" rx="2.958" transform="translate(1666.924 4328.8)" fill="#db202d"/>
          <rect id="Rectangle_649" data-name="Rectangle 649" width="17.79" height="5.916" rx="2.958" transform="translate(1666.924 4336.263)" fill="#db202d"/>
        </g>
        <g id="Group_390" data-name="Group 390">
          <rect id="Rectangle_650" data-name="Rectangle 650" width="17.79" height="5.916" rx="2.958" transform="translate(1702.505 4328.8)" fill="#db202d"/>
          <rect id="Rectangle_651" data-name="Rectangle 651" width="17.79" height="5.916" rx="2.958" transform="translate(1702.504 4336.263)" fill="#db202d"/>
        </g>
        <g id="Group_391" data-name="Group 391">
          <rect id="Rectangle_652" data-name="Rectangle 652" width="17.79" height="5.916" rx="2.958" transform="translate(1738.086 4328.8)" fill="#db202d"/>
          <rect id="Rectangle_653" data-name="Rectangle 653" width="17.79" height="5.916" rx="2.958" transform="translate(1738.085 4336.263)" fill="#db202d"/>
        </g>
        <g id="Group_392" data-name="Group 392">
          <rect id="Rectangle_654" data-name="Rectangle 654" width="17.79" height="5.916" rx="2.958" transform="translate(1773.667 4328.8)" fill="#db202d"/>
          <rect id="Rectangle_655" data-name="Rectangle 655" width="17.79" height="5.916" rx="2.958" transform="translate(1773.666 4336.263)" fill="#db202d"/>
        </g>
        <g id="Group_393" data-name="Group 393">
          <rect id="Rectangle_656" data-name="Rectangle 656" width="17.79" height="5.916" rx="2.958" transform="translate(1809.248 4328.8)" fill="#db202d"/>
          <rect id="Rectangle_657" data-name="Rectangle 657" width="17.79" height="5.916" rx="2.958" transform="translate(1809.247 4336.263)" fill="#db202d"/>
        </g>
        <g id="Group_394" data-name="Group 394">
          <rect id="Rectangle_658" data-name="Rectangle 658" width="17.79" height="5.916" rx="2.958" transform="translate(1844.829 4328.8)" fill="#db202d"/>
          <rect id="Rectangle_659" data-name="Rectangle 659" width="17.79" height="5.916" rx="2.958" transform="translate(1844.828 4336.263)" fill="#db202d"/>
        </g>
        <g id="Group_395" data-name="Group 395">
          <rect id="Rectangle_660" data-name="Rectangle 660" width="17.79" height="5.916" rx="2.958" transform="translate(1880.392 4328.8)" fill="#db202d"/>
          <rect id="Rectangle_661" data-name="Rectangle 661" width="17.79" height="5.916" rx="2.958" transform="translate(1880.391 4336.263)" fill="#db202d"/>
        </g>
        <g id="Group_396" data-name="Group 396">
          <rect id="Rectangle_662" data-name="Rectangle 662" width="17.79" height="5.916" rx="2.958" transform="translate(1915.956 4328.8)" fill="#db202d"/>
          <rect id="Rectangle_663" data-name="Rectangle 663" width="17.79" height="5.916" rx="2.958" transform="translate(1915.955 4336.263)" fill="#db202d"/>
        </g>
        <g id="Group_397" data-name="Group 397">
          <rect id="Rectangle_664" data-name="Rectangle 664" width="17.79" height="5.916" rx="2.958" transform="translate(1951.52 4328.8)" fill="#db202d"/>
          <rect id="Rectangle_665" data-name="Rectangle 665" width="17.79" height="5.916" rx="2.958" transform="translate(1951.519 4336.263)" fill="#db202d"/>
        </g>
        <g id="Group_398" data-name="Group 398">
          <rect id="Rectangle_666" data-name="Rectangle 666" width="17.79" height="5.916" rx="2.958" transform="translate(1987.083 4328.8)" fill="#db202d"/>
          <rect id="Rectangle_667" data-name="Rectangle 667" width="17.79" height="5.916" rx="2.958" transform="translate(1987.082 4336.263)" fill="#db202d"/>
        </g>
        <g id="Group_399" data-name="Group 399">
          <rect id="Rectangle_668" data-name="Rectangle 668" width="17.79" height="5.916" rx="2.958" transform="translate(2022.647 4328.8)" fill="#db202d"/>
          <rect id="Rectangle_669" data-name="Rectangle 669" width="17.79" height="5.916" rx="2.958" transform="translate(2022.646 4336.263)" fill="#db202d"/>
        </g>
        <g id="Group_400" data-name="Group 400">
          <rect id="Rectangle_670" data-name="Rectangle 670" width="17.79" height="5.916" rx="2.958" transform="translate(2058.21 4328.8)" fill="#db202d"/>
          <rect id="Rectangle_671" data-name="Rectangle 671" width="17.79" height="5.916" rx="2.958" transform="translate(2058.209 4336.263)" fill="#db202d"/>
        </g>
      </g>
    </g>
  </g>
</svg>
