<svg xmlns="http://www.w3.org/2000/svg" width="2223.702" height="13.379" viewBox="0 0 2223.702 13.379">
  <g id="Group_269" data-name="Group 269" transform="translate(147.702 -3248.8)">
    <g id="Group_268" data-name="Group 268">
      <g id="Group_244" data-name="Group 244">
        <g id="Group_203" data-name="Group 203">
          <rect id="Rectangle_294" data-name="Rectangle 294" width="17.79" height="5.916" rx="2.958" transform="translate(-112.12 3248.8)" fill="#3a3a3c"/>
          <rect id="Rectangle_295" data-name="Rectangle 295" width="17.79" height="5.916" rx="2.958" transform="translate(-112.121 3256.263)" fill="#3a3a3c"/>
        </g>
        <g id="Group_204" data-name="Group 204">
          <rect id="Rectangle_296" data-name="Rectangle 296" width="17.79" height="5.916" rx="2.958" transform="translate(-147.701 3248.8)" fill="#3a3a3c"/>
          <rect id="Rectangle_297" data-name="Rectangle 297" width="17.79" height="5.916" rx="2.958" transform="translate(-147.702 3256.263)" fill="#3a3a3c"/>
        </g>
        <g id="Group_205" data-name="Group 205">
          <rect id="Rectangle_298" data-name="Rectangle 298" width="17.79" height="5.916" rx="2.958" transform="translate(-76.539 3248.8)" fill="#3a3a3c"/>
          <rect id="Rectangle_299" data-name="Rectangle 299" width="17.79" height="5.916" rx="2.958" transform="translate(-76.54 3256.263)" fill="#3a3a3c"/>
        </g>
        <g id="Group_206" data-name="Group 206">
          <rect id="Rectangle_300" data-name="Rectangle 300" width="17.79" height="5.916" rx="2.958" transform="translate(-40.958 3248.8)" fill="#3a3a3c"/>
          <rect id="Rectangle_301" data-name="Rectangle 301" width="17.79" height="5.916" rx="2.958" transform="translate(-40.959 3256.263)" fill="#3a3a3c"/>
        </g>
        <g id="Group_207" data-name="Group 207">
          <rect id="Rectangle_302" data-name="Rectangle 302" width="17.79" height="5.916" rx="2.958" transform="translate(-5.377 3248.8)" fill="#3a3a3c"/>
          <rect id="Rectangle_303" data-name="Rectangle 303" width="17.79" height="5.916" rx="2.958" transform="translate(-5.378 3256.263)" fill="#3a3a3c"/>
        </g>
        <g id="Group_208" data-name="Group 208">
          <rect id="Rectangle_304" data-name="Rectangle 304" width="17.79" height="5.916" rx="2.958" transform="translate(30.204 3248.8)" fill="#3a3a3c"/>
          <rect id="Rectangle_305" data-name="Rectangle 305" width="17.79" height="5.916" rx="2.958" transform="translate(30.203 3256.263)" fill="#3a3a3c"/>
        </g>
        <g id="Group_209" data-name="Group 209">
          <rect id="Rectangle_306" data-name="Rectangle 306" width="17.79" height="5.916" rx="2.958" transform="translate(65.784 3248.8)" fill="#3a3a3c"/>
          <rect id="Rectangle_307" data-name="Rectangle 307" width="17.79" height="5.916" rx="2.958" transform="translate(65.784 3256.263)" fill="#3a3a3c"/>
        </g>
        <g id="Group_210" data-name="Group 210">
          <rect id="Rectangle_308" data-name="Rectangle 308" width="17.79" height="5.916" rx="2.958" transform="translate(101.365 3248.8)" fill="#3a3a3c"/>
          <rect id="Rectangle_309" data-name="Rectangle 309" width="17.79" height="5.916" rx="2.958" transform="translate(101.365 3256.263)" fill="#3a3a3c"/>
        </g>
        <g id="Group_211" data-name="Group 211">
          <rect id="Rectangle_310" data-name="Rectangle 310" width="17.79" height="5.916" rx="2.958" transform="translate(136.946 3248.8)" fill="#3a3a3c"/>
          <rect id="Rectangle_311" data-name="Rectangle 311" width="17.79" height="5.916" rx="2.958" transform="translate(136.945 3256.263)" fill="#3a3a3c"/>
        </g>
        <g id="Group_212" data-name="Group 212">
          <rect id="Rectangle_312" data-name="Rectangle 312" width="17.79" height="5.916" rx="2.958" transform="translate(172.527 3248.8)" fill="#3a3a3c"/>
          <rect id="Rectangle_313" data-name="Rectangle 313" width="17.79" height="5.916" rx="2.958" transform="translate(172.526 3256.263)" fill="#3a3a3c"/>
        </g>
        <g id="Group_213" data-name="Group 213">
          <rect id="Rectangle_314" data-name="Rectangle 314" width="17.79" height="5.916" rx="2.958" transform="translate(208.108 3248.8)" fill="#3a3a3c"/>
          <rect id="Rectangle_315" data-name="Rectangle 315" width="17.79" height="5.916" rx="2.958" transform="translate(208.107 3256.263)" fill="#3a3a3c"/>
        </g>
        <g id="Group_214" data-name="Group 214">
          <rect id="Rectangle_316" data-name="Rectangle 316" width="17.79" height="5.916" rx="2.958" transform="translate(243.689 3248.8)" fill="#3a3a3c"/>
          <rect id="Rectangle_317" data-name="Rectangle 317" width="17.79" height="5.916" rx="2.958" transform="translate(243.688 3256.263)" fill="#3a3a3c"/>
        </g>
        <g id="Group_215" data-name="Group 215">
          <rect id="Rectangle_318" data-name="Rectangle 318" width="17.79" height="5.916" rx="2.958" transform="translate(279.27 3248.8)" fill="#3a3a3c"/>
          <rect id="Rectangle_319" data-name="Rectangle 319" width="17.79" height="5.916" rx="2.958" transform="translate(279.269 3256.263)" fill="#3a3a3c"/>
        </g>
        <g id="Group_216" data-name="Group 216">
          <rect id="Rectangle_320" data-name="Rectangle 320" width="17.79" height="5.916" rx="2.958" transform="translate(314.851 3248.8)" fill="#3a3a3c"/>
          <rect id="Rectangle_321" data-name="Rectangle 321" width="17.79" height="5.916" rx="2.958" transform="translate(314.85 3256.263)" fill="#3a3a3c"/>
        </g>
        <g id="Group_217" data-name="Group 217">
          <rect id="Rectangle_322" data-name="Rectangle 322" width="17.79" height="5.916" rx="2.958" transform="translate(350.431 3248.8)" fill="#3a3a3c"/>
          <rect id="Rectangle_323" data-name="Rectangle 323" width="17.79" height="5.916" rx="2.958" transform="translate(350.431 3256.263)" fill="#3a3a3c"/>
        </g>
        <g id="Group_218" data-name="Group 218">
          <rect id="Rectangle_324" data-name="Rectangle 324" width="17.79" height="5.916" rx="2.958" transform="translate(386.012 3248.8)" fill="#3a3a3c"/>
          <rect id="Rectangle_325" data-name="Rectangle 325" width="17.79" height="5.916" rx="2.958" transform="translate(386.012 3256.263)" fill="#3a3a3c"/>
        </g>
        <g id="Group_219" data-name="Group 219">
          <rect id="Rectangle_326" data-name="Rectangle 326" width="17.79" height="5.916" rx="2.958" transform="translate(421.593 3248.8)" fill="#3a3a3c"/>
          <rect id="Rectangle_327" data-name="Rectangle 327" width="17.79" height="5.916" rx="2.958" transform="translate(421.592 3256.263)" fill="#3a3a3c"/>
        </g>
        <g id="Group_220" data-name="Group 220">
          <rect id="Rectangle_328" data-name="Rectangle 328" width="17.79" height="5.916" rx="2.958" transform="translate(457.174 3248.8)" fill="#3a3a3c"/>
          <rect id="Rectangle_329" data-name="Rectangle 329" width="17.79" height="5.916" rx="2.958" transform="translate(457.173 3256.263)" fill="#3a3a3c"/>
        </g>
        <g id="Group_221" data-name="Group 221">
          <rect id="Rectangle_330" data-name="Rectangle 330" width="17.79" height="5.916" rx="2.958" transform="translate(492.755 3248.8)" fill="#3a3a3c"/>
          <rect id="Rectangle_331" data-name="Rectangle 331" width="17.79" height="5.916" rx="2.958" transform="translate(492.754 3256.263)" fill="#3a3a3c"/>
        </g>
        <g id="Group_222" data-name="Group 222">
          <rect id="Rectangle_332" data-name="Rectangle 332" width="17.79" height="5.916" rx="2.958" transform="translate(528.336 3248.8)" fill="#3a3a3c"/>
          <rect id="Rectangle_333" data-name="Rectangle 333" width="17.79" height="5.916" rx="2.958" transform="translate(528.335 3256.263)" fill="#3a3a3c"/>
        </g>
        <g id="Group_223" data-name="Group 223">
          <rect id="Rectangle_334" data-name="Rectangle 334" width="17.79" height="5.916" rx="2.958" transform="translate(563.917 3248.8)" fill="#3a3a3c"/>
          <rect id="Rectangle_335" data-name="Rectangle 335" width="17.79" height="5.916" rx="2.958" transform="translate(563.916 3256.263)" fill="#3a3a3c"/>
        </g>
        <g id="Group_224" data-name="Group 224">
          <rect id="Rectangle_336" data-name="Rectangle 336" width="17.79" height="5.916" rx="2.958" transform="translate(599.498 3248.8)" fill="#3a3a3c"/>
          <rect id="Rectangle_337" data-name="Rectangle 337" width="17.79" height="5.916" rx="2.958" transform="translate(599.497 3256.263)" fill="#3a3a3c"/>
        </g>
        <g id="Group_225" data-name="Group 225">
          <rect id="Rectangle_338" data-name="Rectangle 338" width="17.79" height="5.916" rx="2.958" transform="translate(635.078 3248.8)" fill="#3a3a3c"/>
          <rect id="Rectangle_339" data-name="Rectangle 339" width="17.79" height="5.916" rx="2.958" transform="translate(635.078 3256.263)" fill="#3a3a3c"/>
        </g>
        <g id="Group_226" data-name="Group 226">
          <rect id="Rectangle_340" data-name="Rectangle 340" width="17.79" height="5.916" rx="2.958" transform="translate(670.659 3248.8)" fill="#3a3a3c"/>
          <rect id="Rectangle_341" data-name="Rectangle 341" width="17.79" height="5.916" rx="2.958" transform="translate(670.659 3256.263)" fill="#3a3a3c"/>
        </g>
        <g id="Group_227" data-name="Group 227">
          <rect id="Rectangle_342" data-name="Rectangle 342" width="17.79" height="5.916" rx="2.958" transform="translate(706.24 3248.8)" fill="#3a3a3c"/>
          <rect id="Rectangle_343" data-name="Rectangle 343" width="17.79" height="5.916" rx="2.958" transform="translate(706.24 3256.263)" fill="#3a3a3c"/>
        </g>
        <g id="Group_228" data-name="Group 228">
          <rect id="Rectangle_344" data-name="Rectangle 344" width="17.79" height="5.916" rx="2.958" transform="translate(741.821 3248.8)" fill="#3a3a3c"/>
          <rect id="Rectangle_345" data-name="Rectangle 345" width="17.79" height="5.916" rx="2.958" transform="translate(741.82 3256.263)" fill="#3a3a3c"/>
        </g>
        <g id="Group_229" data-name="Group 229">
          <rect id="Rectangle_346" data-name="Rectangle 346" width="17.79" height="5.916" rx="2.958" transform="translate(777.402 3248.8)" fill="#3a3a3c"/>
          <rect id="Rectangle_347" data-name="Rectangle 347" width="17.79" height="5.916" rx="2.958" transform="translate(777.401 3256.263)" fill="#3a3a3c"/>
        </g>
        <g id="Group_230" data-name="Group 230">
          <rect id="Rectangle_348" data-name="Rectangle 348" width="17.79" height="5.916" rx="2.958" transform="translate(812.983 3248.8)" fill="#3a3a3c"/>
          <rect id="Rectangle_349" data-name="Rectangle 349" width="17.79" height="5.916" rx="2.958" transform="translate(812.982 3256.263)" fill="#3a3a3c"/>
        </g>
        <g id="Group_231" data-name="Group 231">
          <rect id="Rectangle_350" data-name="Rectangle 350" width="17.79" height="5.916" rx="2.958" transform="translate(848.564 3248.8)" fill="#3a3a3c"/>
          <rect id="Rectangle_351" data-name="Rectangle 351" width="17.79" height="5.916" rx="2.958" transform="translate(848.563 3256.263)" fill="#3a3a3c"/>
        </g>
        <g id="Group_232" data-name="Group 232">
          <rect id="Rectangle_352" data-name="Rectangle 352" width="17.79" height="5.916" rx="2.958" transform="translate(884.145 3248.8)" fill="#3a3a3c"/>
          <rect id="Rectangle_353" data-name="Rectangle 353" width="17.79" height="5.916" rx="2.958" transform="translate(884.144 3256.263)" fill="#3a3a3c"/>
        </g>
        <g id="Group_233" data-name="Group 233">
          <rect id="Rectangle_354" data-name="Rectangle 354" width="17.79" height="5.916" rx="2.958" transform="translate(919.725 3248.8)" fill="#3a3a3c"/>
          <rect id="Rectangle_355" data-name="Rectangle 355" width="17.79" height="5.916" rx="2.958" transform="translate(919.725 3256.263)" fill="#3a3a3c"/>
        </g>
        <g id="Group_234" data-name="Group 234">
          <rect id="Rectangle_356" data-name="Rectangle 356" width="17.79" height="5.916" rx="2.958" transform="translate(955.306 3248.8)" fill="#3a3a3c"/>
          <rect id="Rectangle_357" data-name="Rectangle 357" width="17.79" height="5.916" rx="2.958" transform="translate(955.306 3256.263)" fill="#3a3a3c"/>
        </g>
        <g id="Group_235" data-name="Group 235">
          <rect id="Rectangle_358" data-name="Rectangle 358" width="17.79" height="5.916" rx="2.958" transform="translate(990.887 3248.8)" fill="#3a3a3c"/>
          <rect id="Rectangle_359" data-name="Rectangle 359" width="17.79" height="5.916" rx="2.958" transform="translate(990.886 3256.263)" fill="#3a3a3c"/>
        </g>
        <g id="Group_236" data-name="Group 236">
          <rect id="Rectangle_360" data-name="Rectangle 360" width="17.79" height="5.916" rx="2.958" transform="translate(1026.468 3248.8)" fill="#3a3a3c"/>
          <rect id="Rectangle_361" data-name="Rectangle 361" width="17.79" height="5.916" rx="2.958" transform="translate(1026.467 3256.263)" fill="#3a3a3c"/>
        </g>
        <g id="Group_237" data-name="Group 237">
          <rect id="Rectangle_362" data-name="Rectangle 362" width="17.79" height="5.916" rx="2.958" transform="translate(1062.049 3248.8)" fill="#3a3a3c"/>
          <rect id="Rectangle_363" data-name="Rectangle 363" width="17.79" height="5.916" rx="2.958" transform="translate(1062.048 3256.263)" fill="#3a3a3c"/>
        </g>
        <g id="Group_238" data-name="Group 238">
          <rect id="Rectangle_364" data-name="Rectangle 364" width="17.79" height="5.916" rx="2.958" transform="translate(1097.63 3248.8)" fill="#3a3a3c"/>
          <rect id="Rectangle_365" data-name="Rectangle 365" width="17.79" height="5.916" rx="2.958" transform="translate(1097.629 3256.263)" fill="#3a3a3c"/>
        </g>
        <g id="Group_239" data-name="Group 239">
          <rect id="Rectangle_366" data-name="Rectangle 366" width="17.79" height="5.916" rx="2.958" transform="translate(1133.211 3248.8)" fill="#3a3a3c"/>
          <rect id="Rectangle_367" data-name="Rectangle 367" width="17.79" height="5.916" rx="2.958" transform="translate(1133.21 3256.263)" fill="#3a3a3c"/>
        </g>
        <g id="Group_240" data-name="Group 240">
          <rect id="Rectangle_368" data-name="Rectangle 368" width="17.79" height="5.916" rx="2.958" transform="translate(1168.792 3248.8)" fill="#3a3a3c"/>
          <rect id="Rectangle_369" data-name="Rectangle 369" width="17.79" height="5.916" rx="2.958" transform="translate(1168.791 3256.263)" fill="#3a3a3c"/>
        </g>
        <g id="Group_241" data-name="Group 241">
          <rect id="Rectangle_370" data-name="Rectangle 370" width="17.79" height="5.916" rx="2.958" transform="translate(1204.373 3248.8)" fill="#3a3a3c"/>
          <rect id="Rectangle_371" data-name="Rectangle 371" width="17.79" height="5.916" rx="2.958" transform="translate(1204.372 3256.263)" fill="#3a3a3c"/>
        </g>
        <g id="Group_242" data-name="Group 242">
          <rect id="Rectangle_372" data-name="Rectangle 372" width="17.79" height="5.916" rx="2.958" transform="translate(1239.953 3248.8)" fill="#3a3a3c"/>
          <rect id="Rectangle_373" data-name="Rectangle 373" width="17.79" height="5.916" rx="2.958" transform="translate(1239.953 3256.263)" fill="#3a3a3c"/>
        </g>
        <g id="Group_243" data-name="Group 243">
          <rect id="Rectangle_374" data-name="Rectangle 374" width="17.79" height="5.916" rx="2.958" transform="translate(1275.534 3248.8)" fill="#3a3a3c"/>
          <rect id="Rectangle_375" data-name="Rectangle 375" width="17.79" height="5.916" rx="2.958" transform="translate(1275.534 3256.263)" fill="#3a3a3c"/>
        </g>
      </g>
      <g id="Group_267" data-name="Group 267">
        <g id="Group_245" data-name="Group 245">
          <rect id="Rectangle_376" data-name="Rectangle 376" width="17.79" height="5.916" rx="2.958" transform="translate(1346.696 3248.8)" fill="#3a3a3c"/>
          <rect id="Rectangle_377" data-name="Rectangle 377" width="17.79" height="5.916" rx="2.958" transform="translate(1346.696 3256.263)" fill="#3a3a3c"/>
        </g>
        <g id="Group_246" data-name="Group 246">
          <rect id="Rectangle_378" data-name="Rectangle 378" width="17.79" height="5.916" rx="2.958" transform="translate(1311.115 3248.8)" fill="#3a3a3c"/>
          <rect id="Rectangle_379" data-name="Rectangle 379" width="17.79" height="5.916" rx="2.958" transform="translate(1311.114 3256.263)" fill="#3a3a3c"/>
        </g>
        <g id="Group_247" data-name="Group 247">
          <rect id="Rectangle_380" data-name="Rectangle 380" width="17.79" height="5.916" rx="2.958" transform="translate(1382.277 3248.8)" fill="#3a3a3c"/>
          <rect id="Rectangle_381" data-name="Rectangle 381" width="17.79" height="5.916" rx="2.958" transform="translate(1382.276 3256.263)" fill="#3a3a3c"/>
        </g>
        <g id="Group_248" data-name="Group 248">
          <rect id="Rectangle_382" data-name="Rectangle 382" width="17.79" height="5.916" rx="2.958" transform="translate(1417.858 3248.8)" fill="#3a3a3c"/>
          <rect id="Rectangle_383" data-name="Rectangle 383" width="17.79" height="5.916" rx="2.958" transform="translate(1417.857 3256.263)" fill="#3a3a3c"/>
        </g>
        <g id="Group_249" data-name="Group 249">
          <rect id="Rectangle_384" data-name="Rectangle 384" width="17.79" height="5.916" rx="2.958" transform="translate(1453.439 3248.8)" fill="#3a3a3c"/>
          <rect id="Rectangle_385" data-name="Rectangle 385" width="17.79" height="5.916" rx="2.958" transform="translate(1453.438 3256.263)" fill="#3a3a3c"/>
        </g>
        <g id="Group_250" data-name="Group 250">
          <rect id="Rectangle_386" data-name="Rectangle 386" width="17.79" height="5.916" rx="2.958" transform="translate(1489.02 3248.8)" fill="#3a3a3c"/>
          <rect id="Rectangle_387" data-name="Rectangle 387" width="17.79" height="5.916" rx="2.958" transform="translate(1489.019 3256.263)" fill="#3a3a3c"/>
        </g>
        <g id="Group_251" data-name="Group 251">
          <rect id="Rectangle_388" data-name="Rectangle 388" width="17.79" height="5.916" rx="2.958" transform="translate(1524.601 3248.8)" fill="#3a3a3c"/>
          <rect id="Rectangle_389" data-name="Rectangle 389" width="17.79" height="5.916" rx="2.958" transform="translate(1524.6 3256.263)" fill="#3a3a3c"/>
        </g>
        <g id="Group_252" data-name="Group 252">
          <rect id="Rectangle_390" data-name="Rectangle 390" width="17.79" height="5.916" rx="2.958" transform="translate(1560.182 3248.8)" fill="#3a3a3c"/>
          <rect id="Rectangle_391" data-name="Rectangle 391" width="17.79" height="5.916" rx="2.958" transform="translate(1560.181 3256.263)" fill="#3a3a3c"/>
        </g>
        <g id="Group_253" data-name="Group 253">
          <rect id="Rectangle_392" data-name="Rectangle 392" width="17.79" height="5.916" rx="2.958" transform="translate(1595.763 3248.8)" fill="#3a3a3c"/>
          <rect id="Rectangle_393" data-name="Rectangle 393" width="17.79" height="5.916" rx="2.958" transform="translate(1595.762 3256.263)" fill="#3a3a3c"/>
        </g>
        <g id="Group_254" data-name="Group 254">
          <rect id="Rectangle_394" data-name="Rectangle 394" width="17.79" height="5.916" rx="2.958" transform="translate(1631.343 3248.8)" fill="#3a3a3c"/>
          <rect id="Rectangle_395" data-name="Rectangle 395" width="17.79" height="5.916" rx="2.958" transform="translate(1631.343 3256.263)" fill="#3a3a3c"/>
        </g>
        <g id="Group_255" data-name="Group 255">
          <rect id="Rectangle_396" data-name="Rectangle 396" width="17.79" height="5.916" rx="2.958" transform="translate(1666.924 3248.8)" fill="#3a3a3c"/>
          <rect id="Rectangle_397" data-name="Rectangle 397" width="17.79" height="5.916" rx="2.958" transform="translate(1666.924 3256.263)" fill="#3a3a3c"/>
        </g>
        <g id="Group_256" data-name="Group 256">
          <rect id="Rectangle_398" data-name="Rectangle 398" width="17.79" height="5.916" rx="2.958" transform="translate(1702.505 3248.8)" fill="#3a3a3c"/>
          <rect id="Rectangle_399" data-name="Rectangle 399" width="17.79" height="5.916" rx="2.958" transform="translate(1702.504 3256.263)" fill="#3a3a3c"/>
        </g>
        <g id="Group_257" data-name="Group 257">
          <rect id="Rectangle_400" data-name="Rectangle 400" width="17.79" height="5.916" rx="2.958" transform="translate(1738.086 3248.8)" fill="#3a3a3c"/>
          <rect id="Rectangle_401" data-name="Rectangle 401" width="17.79" height="5.916" rx="2.958" transform="translate(1738.085 3256.263)" fill="#3a3a3c"/>
        </g>
        <g id="Group_258" data-name="Group 258">
          <rect id="Rectangle_402" data-name="Rectangle 402" width="17.79" height="5.916" rx="2.958" transform="translate(1773.667 3248.8)" fill="#3a3a3c"/>
          <rect id="Rectangle_403" data-name="Rectangle 403" width="17.79" height="5.916" rx="2.958" transform="translate(1773.666 3256.263)" fill="#3a3a3c"/>
        </g>
        <g id="Group_259" data-name="Group 259">
          <rect id="Rectangle_404" data-name="Rectangle 404" width="17.79" height="5.916" rx="2.958" transform="translate(1809.248 3248.8)" fill="#3a3a3c"/>
          <rect id="Rectangle_405" data-name="Rectangle 405" width="17.79" height="5.916" rx="2.958" transform="translate(1809.247 3256.263)" fill="#3a3a3c"/>
        </g>
        <g id="Group_260" data-name="Group 260">
          <rect id="Rectangle_406" data-name="Rectangle 406" width="17.79" height="5.916" rx="2.958" transform="translate(1844.829 3248.8)" fill="#3a3a3c"/>
          <rect id="Rectangle_407" data-name="Rectangle 407" width="17.79" height="5.916" rx="2.958" transform="translate(1844.828 3256.263)" fill="#3a3a3c"/>
        </g>
        <g id="Group_261" data-name="Group 261">
          <rect id="Rectangle_408" data-name="Rectangle 408" width="17.79" height="5.916" rx="2.958" transform="translate(1880.392 3248.8)" fill="#3a3a3c"/>
          <rect id="Rectangle_409" data-name="Rectangle 409" width="17.79" height="5.916" rx="2.958" transform="translate(1880.391 3256.263)" fill="#3a3a3c"/>
        </g>
        <g id="Group_262" data-name="Group 262">
          <rect id="Rectangle_410" data-name="Rectangle 410" width="17.79" height="5.916" rx="2.958" transform="translate(1915.956 3248.8)" fill="#3a3a3c"/>
          <rect id="Rectangle_411" data-name="Rectangle 411" width="17.79" height="5.916" rx="2.958" transform="translate(1915.955 3256.263)" fill="#3a3a3c"/>
        </g>
        <g id="Group_263" data-name="Group 263">
          <rect id="Rectangle_412" data-name="Rectangle 412" width="17.79" height="5.916" rx="2.958" transform="translate(1951.52 3248.8)" fill="#3a3a3c"/>
          <rect id="Rectangle_413" data-name="Rectangle 413" width="17.79" height="5.916" rx="2.958" transform="translate(1951.519 3256.263)" fill="#3a3a3c"/>
        </g>
        <g id="Group_264" data-name="Group 264">
          <rect id="Rectangle_414" data-name="Rectangle 414" width="17.79" height="5.916" rx="2.958" transform="translate(1987.083 3248.8)" fill="#3a3a3c"/>
          <rect id="Rectangle_415" data-name="Rectangle 415" width="17.79" height="5.916" rx="2.958" transform="translate(1987.082 3256.263)" fill="#3a3a3c"/>
        </g>
        <g id="Group_265" data-name="Group 265">
          <rect id="Rectangle_416" data-name="Rectangle 416" width="17.79" height="5.916" rx="2.958" transform="translate(2022.647 3248.8)" fill="#3a3a3c"/>
          <rect id="Rectangle_417" data-name="Rectangle 417" width="17.79" height="5.916" rx="2.958" transform="translate(2022.646 3256.263)" fill="#3a3a3c"/>
        </g>
        <g id="Group_266" data-name="Group 266">
          <rect id="Rectangle_418" data-name="Rectangle 418" width="17.79" height="5.916" rx="2.958" transform="translate(2058.21 3248.8)" fill="#3a3a3c"/>
          <rect id="Rectangle_419" data-name="Rectangle 419" width="17.79" height="5.916" rx="2.958" transform="translate(2058.209 3256.263)" fill="#3a3a3c"/>
        </g>
      </g>
    </g>
  </g>
</svg>
