<svg id="Projects" xmlns="http://www.w3.org/2000/svg" width="397.803" height="228.621" viewBox="0 0 397.803 228.621">
  <defs>
    <style>
      .cls-1 {
        fill: #eee;
      }
    </style>
  </defs>
  <g id="Group_517" data-name="Group 517" transform="translate(-335.199 -1416.511)">
    <g id="Group_508" data-name="Group 508">
      <rect id="Rectangle_858" data-name="Rectangle 858" class="cls-1" width="61.201" height="10.175" rx="5.088" transform="translate(457.598 1429.559)"/>
      <rect id="Rectangle_859" data-name="Rectangle 859" class="cls-1" width="61.201" height="10.175" rx="5.088" transform="translate(457.598 1416.511)"/>
    </g>
    <g id="Group_509" data-name="Group 509">
      <rect id="Rectangle_860" data-name="Rectangle 860" class="cls-1" width="61.201" height="10.175" rx="5.088" transform="translate(427 1455.234)"/>
      <rect id="Rectangle_861" data-name="Rectangle 861" class="cls-1" width="61.201" height="10.175" rx="5.088" transform="translate(427 1442.186)"/>
    </g>
    <g id="Group_510" data-name="Group 510">
      <rect id="Rectangle_862" data-name="Rectangle 862" class="cls-1" width="61.201" height="10.175" rx="5.088" transform="translate(396.4 1480.908)"/>
      <rect id="Rectangle_863" data-name="Rectangle 863" class="cls-1" width="61.201" height="10.175" rx="5.088" transform="translate(396.4 1467.861)"/>
    </g>
    <g id="Group_511" data-name="Group 511">
      <rect id="Rectangle_864" data-name="Rectangle 864" class="cls-1" width="61.201" height="10.175" rx="5.088" transform="translate(365.799 1506.583)"/>
      <rect id="Rectangle_865" data-name="Rectangle 865" class="cls-1" width="61.201" height="10.175" rx="5.088" transform="translate(365.799 1493.536)"/>
    </g>
    <g id="Group_512" data-name="Group 512">
      <rect id="Rectangle_866" data-name="Rectangle 866" class="cls-1" width="61.201" height="10.175" rx="5.088" transform="translate(335.199 1532.258)"/>
      <rect id="Rectangle_867" data-name="Rectangle 867" class="cls-1" width="61.201" height="10.175" rx="5.088" transform="translate(335.199 1519.21)"/>
    </g>
    <g id="Group_513" data-name="Group 513">
      <rect id="Rectangle_868" data-name="Rectangle 868" class="cls-1" width="61.201" height="10.175" rx="5.088" transform="translate(365.799 1557.933)"/>
      <rect id="Rectangle_869" data-name="Rectangle 869" class="cls-1" width="61.201" height="10.175" rx="5.088" transform="translate(365.799 1544.885)"/>
    </g>
    <g id="Group_514" data-name="Group 514">
      <rect id="Rectangle_870" data-name="Rectangle 870" class="cls-1" width="61.201" height="10.175" rx="5.088" transform="translate(396.4 1583.608)"/>
      <rect id="Rectangle_871" data-name="Rectangle 871" class="cls-1" width="61.201" height="10.175" rx="5.088" transform="translate(396.4 1570.56)"/>
    </g>
    <g id="Group_515" data-name="Group 515">
      <rect id="Rectangle_872" data-name="Rectangle 872" class="cls-1" width="61.201" height="10.175" rx="5.088" transform="translate(427 1609.282)"/>
      <rect id="Rectangle_873" data-name="Rectangle 873" class="cls-1" width="61.201" height="10.175" rx="5.088" transform="translate(427 1596.235)"/>
    </g>
    <g id="Group_516" data-name="Group 516">
      <rect id="Rectangle_874" data-name="Rectangle 874" class="cls-1" width="61.201" height="10.175" rx="5.088" transform="translate(457.601 1634.957)"/>
      <rect id="Rectangle_875" data-name="Rectangle 875" class="cls-1" width="61.201" height="10.175" rx="5.088" transform="translate(457.601 1621.91)"/>
    </g>
  </g>
  <g id="Group_527" data-name="Group 527" transform="translate(-335.199 -1416.511)">
    <g id="Group_518" data-name="Group 518">
      <rect id="Rectangle_876" data-name="Rectangle 876" class="cls-1" width="61.201" height="10.175" rx="5.088" transform="translate(549.402 1429.559)"/>
      <rect id="Rectangle_877" data-name="Rectangle 877" class="cls-1" width="61.201" height="10.175" rx="5.088" transform="translate(549.402 1416.511)"/>
    </g>
    <g id="Group_519" data-name="Group 519">
      <rect id="Rectangle_878" data-name="Rectangle 878" class="cls-1" width="61.201" height="10.175" rx="5.088" transform="translate(580 1455.234)"/>
      <rect id="Rectangle_879" data-name="Rectangle 879" class="cls-1" width="61.201" height="10.175" rx="5.088" transform="translate(580 1442.186)"/>
    </g>
    <g id="Group_520" data-name="Group 520">
      <rect id="Rectangle_880" data-name="Rectangle 880" class="cls-1" width="61.201" height="10.175" rx="5.088" transform="translate(610.6 1480.908)"/>
      <rect id="Rectangle_881" data-name="Rectangle 881" class="cls-1" width="61.201" height="10.175" rx="5.088" transform="translate(610.6 1467.861)"/>
    </g>
    <g id="Group_521" data-name="Group 521">
      <rect id="Rectangle_882" data-name="Rectangle 882" class="cls-1" width="61.201" height="10.175" rx="5.088" transform="translate(641.201 1506.583)"/>
      <rect id="Rectangle_883" data-name="Rectangle 883" class="cls-1" width="61.201" height="10.175" rx="5.088" transform="translate(641.201 1493.536)"/>
    </g>
    <g id="Group_522" data-name="Group 522">
      <rect id="Rectangle_884" data-name="Rectangle 884" class="cls-1" width="61.201" height="10.175" rx="5.088" transform="translate(671.801 1532.258)"/>
      <rect id="Rectangle_885" data-name="Rectangle 885" class="cls-1" width="61.201" height="10.175" rx="5.088" transform="translate(671.801 1519.21)"/>
    </g>
    <g id="Group_523" data-name="Group 523">
      <rect id="Rectangle_886" data-name="Rectangle 886" class="cls-1" width="61.201" height="10.175" rx="5.088" transform="translate(641.201 1557.933)"/>
      <rect id="Rectangle_887" data-name="Rectangle 887" class="cls-1" width="61.201" height="10.175" rx="5.088" transform="translate(641.201 1544.885)"/>
    </g>
    <g id="Group_524" data-name="Group 524">
      <rect id="Rectangle_888" data-name="Rectangle 888" class="cls-1" width="61.201" height="10.175" rx="5.088" transform="translate(610.6 1583.608)"/>
      <rect id="Rectangle_889" data-name="Rectangle 889" class="cls-1" width="61.201" height="10.175" rx="5.088" transform="translate(610.6 1570.56)"/>
    </g>
    <g id="Group_525" data-name="Group 525">
      <rect id="Rectangle_890" data-name="Rectangle 890" class="cls-1" width="61.201" height="10.175" rx="5.088" transform="translate(580 1609.282)"/>
      <rect id="Rectangle_891" data-name="Rectangle 891" class="cls-1" width="61.201" height="10.175" rx="5.088" transform="translate(580 1596.235)"/>
    </g>
    <g id="Group_526" data-name="Group 526">
      <rect id="Rectangle_892" data-name="Rectangle 892" class="cls-1" width="61.201" height="10.175" rx="5.088" transform="translate(549.399 1634.957)"/>
      <rect id="Rectangle_893" data-name="Rectangle 893" class="cls-1" width="61.201" height="10.175" rx="5.088" transform="translate(549.399 1621.91)"/>
    </g>
  </g>
</svg>
