<svg xmlns="http://www.w3.org/2000/svg" width="397.803" height="228.621" fill="#eee" xmlns:v="https://vecta.io/nano"><rect width="61.201" height="10.175" rx="5.088" x="122.399" y="13.048"/><rect width="61.201" height="10.175" rx="5.088" x="122.399"/><rect width="61.201" height="10.175" rx="5.088" x="91.801" y="38.723"/><rect width="61.201" height="10.175" rx="5.088" x="91.801" y="25.675"/><rect width="61.201" height="10.175" rx="5.088" x="61.201" y="64.397"/><rect width="61.201" height="10.175" rx="5.088" x="61.201" y="51.35"/><rect width="61.201" height="10.175" rx="5.088" x="30.6" y="90.072"/><rect width="61.201" height="10.175" rx="5.088" x="30.6" y="77.025"/><rect width="61.201" height="10.175" rx="5.088" y="115.747"/><rect width="61.201" height="10.175" rx="5.088" y="102.699"/><rect width="61.201" height="10.175" rx="5.088" x="30.6" y="141.422"/><rect width="61.201" height="10.175" rx="5.088" x="30.6" y="128.374"/><rect width="61.201" height="10.175" rx="5.088" x="61.201" y="167.097"/><rect width="61.201" height="10.175" rx="5.088" x="61.201" y="154.049"/><rect width="61.201" height="10.175" rx="5.088" x="91.801" y="192.771"/><rect width="61.201" height="10.175" rx="5.088" x="91.801" y="179.724"/><rect width="61.201" height="10.175" rx="5.088" x="122.402" y="218.446"/><rect width="61.201" height="10.175" rx="5.088" x="122.402" y="205.399"/><rect width="61.201" height="10.175" rx="5.088" x="214.203" y="13.048"/><rect width="61.201" height="10.175" rx="5.088" x="214.203"/><rect width="61.201" height="10.175" rx="5.088" x="244.801" y="38.723"/><rect width="61.201" height="10.175" rx="5.088" x="244.801" y="25.675"/><rect width="61.201" height="10.175" rx="5.088" x="275.401" y="64.397"/><rect width="61.201" height="10.175" rx="5.088" x="275.401" y="51.35"/><rect width="61.201" height="10.175" rx="5.088" x="306.002" y="90.072"/><rect width="61.201" height="10.175" rx="5.088" x="306.002" y="77.025"/><rect width="61.201" height="10.175" rx="5.088" x="336.602" y="115.747"/><rect width="61.201" height="10.175" rx="5.088" x="336.602" y="102.699"/><rect width="61.201" height="10.175" rx="5.088" x="306.002" y="141.422"/><rect width="61.201" height="10.175" rx="5.088" x="306.002" y="128.374"/><rect width="61.201" height="10.175" rx="5.088" x="275.401" y="167.097"/><rect width="61.201" height="10.175" rx="5.088" x="275.401" y="154.049"/><rect width="61.201" height="10.175" rx="5.088" x="244.801" y="192.771"/><rect width="61.201" height="10.175" rx="5.088" x="244.801" y="179.724"/><rect width="61.201" height="10.175" rx="5.088" x="214.2" y="218.446"/><rect width="61.201" height="10.175" rx="5.088" x="214.2" y="205.399"/></svg>