<svg xmlns="http://www.w3.org/2000/svg" width="1683" height="228.621" viewBox="0 0 1683 228.621">
  <defs>
    <style>
      .cls-1 {
        fill: #eee;
      }
    </style>
  </defs>
  <g id="Group_1028" data-name="Group 1028" transform="translate(-121 -1416.511)">
    <g id="Group_507" data-name="Group 507">
      <g id="Group_498" data-name="Group 498">
        <rect id="Rectangle_840" data-name="Rectangle 840" class="cls-1" width="61.201" height="10.175" rx="5.088" transform="translate(121.003 1429.559)"/>
        <rect id="Rectangle_841" data-name="Rectangle 841" class="cls-1" width="61.201" height="10.175" rx="5.088" transform="translate(121.003 1416.511)"/>
      </g>
      <g id="Group_499" data-name="Group 499">
        <rect id="Rectangle_842" data-name="Rectangle 842" class="cls-1" width="61.201" height="10.175" rx="5.088" transform="translate(151.6 1455.234)"/>
        <rect id="Rectangle_843" data-name="Rectangle 843" class="cls-1" width="61.201" height="10.175" rx="5.088" transform="translate(151.6 1442.186)"/>
      </g>
      <g id="Group_500" data-name="Group 500">
        <rect id="Rectangle_844" data-name="Rectangle 844" class="cls-1" width="61.201" height="10.175" rx="5.088" transform="translate(182.201 1480.908)"/>
        <rect id="Rectangle_845" data-name="Rectangle 845" class="cls-1" width="61.201" height="10.175" rx="5.088" transform="translate(182.201 1467.861)"/>
      </g>
      <g id="Group_501" data-name="Group 501">
        <rect id="Rectangle_846" data-name="Rectangle 846" class="cls-1" width="61.201" height="10.175" rx="5.088" transform="translate(212.801 1506.583)"/>
        <rect id="Rectangle_847" data-name="Rectangle 847" class="cls-1" width="61.201" height="10.175" rx="5.088" transform="translate(212.801 1493.536)"/>
      </g>
      <g id="Group_502" data-name="Group 502">
        <rect id="Rectangle_848" data-name="Rectangle 848" class="cls-1" width="61.201" height="10.175" rx="5.088" transform="translate(243.402 1532.258)"/>
        <rect id="Rectangle_849" data-name="Rectangle 849" class="cls-1" width="61.201" height="10.175" rx="5.088" transform="translate(243.402 1519.21)"/>
      </g>
      <g id="Group_503" data-name="Group 503">
        <rect id="Rectangle_850" data-name="Rectangle 850" class="cls-1" width="61.201" height="10.175" rx="5.088" transform="translate(212.801 1557.933)"/>
        <rect id="Rectangle_851" data-name="Rectangle 851" class="cls-1" width="61.201" height="10.175" rx="5.088" transform="translate(212.801 1544.885)"/>
      </g>
      <g id="Group_504" data-name="Group 504">
        <rect id="Rectangle_852" data-name="Rectangle 852" class="cls-1" width="61.201" height="10.175" rx="5.088" transform="translate(182.201 1583.608)"/>
        <rect id="Rectangle_853" data-name="Rectangle 853" class="cls-1" width="61.201" height="10.175" rx="5.088" transform="translate(182.201 1570.56)"/>
      </g>
      <g id="Group_505" data-name="Group 505">
        <rect id="Rectangle_854" data-name="Rectangle 854" class="cls-1" width="61.201" height="10.175" rx="5.088" transform="translate(151.6 1609.282)"/>
        <rect id="Rectangle_855" data-name="Rectangle 855" class="cls-1" width="61.201" height="10.175" rx="5.088" transform="translate(151.6 1596.235)"/>
      </g>
      <g id="Group_506" data-name="Group 506">
        <rect id="Rectangle_856" data-name="Rectangle 856" class="cls-1" width="61.201" height="10.175" rx="5.088" transform="translate(121 1634.957)"/>
        <rect id="Rectangle_857" data-name="Rectangle 857" class="cls-1" width="61.201" height="10.175" rx="5.088" transform="translate(121 1621.91)"/>
      </g>
    </g>
    <g id="Group_540" data-name="Group 540">
      <g id="Group_533" data-name="Group 533">
        <g id="Group_528" data-name="Group 528">
          <rect id="Rectangle_894" data-name="Rectangle 894" class="cls-1" width="30.598" height="10.175" rx="5.088" transform="translate(304.599 1506.583)"/>
          <rect id="Rectangle_895" data-name="Rectangle 895" class="cls-1" width="30.598" height="10.175" rx="5.088" transform="translate(304.599 1493.536)"/>
        </g>
        <g id="Group_529" data-name="Group 529">
          <rect id="Rectangle_896" data-name="Rectangle 896" class="cls-1" width="91.8" height="10.175" rx="5.088" transform="translate(274 1480.908)"/>
          <rect id="Rectangle_897" data-name="Rectangle 897" class="cls-1" width="91.8" height="10.175" rx="5.088" transform="translate(274 1467.861)"/>
        </g>
        <g id="Group_530" data-name="Group 530">
          <rect id="Rectangle_898" data-name="Rectangle 898" class="cls-1" width="153" height="10.175" rx="5.088" transform="translate(243.4 1455.234)"/>
          <rect id="Rectangle_899" data-name="Rectangle 899" class="cls-1" width="153" height="10.175" rx="5.088" transform="translate(243.4 1442.186)"/>
        </g>
        <g id="Group_531" data-name="Group 531">
          <rect id="Rectangle_900" data-name="Rectangle 900" class="cls-1" width="91.798" height="10.175" rx="5.088" transform="translate(212.801 1429.559)"/>
          <rect id="Rectangle_901" data-name="Rectangle 901" class="cls-1" width="91.798" height="10.175" rx="5.088" transform="translate(212.801 1416.511)"/>
        </g>
        <g id="Group_532" data-name="Group 532">
          <rect id="Rectangle_902" data-name="Rectangle 902" class="cls-1" width="91.798" height="10.175" rx="5.088" transform="translate(335.195 1429.559)"/>
          <rect id="Rectangle_903" data-name="Rectangle 903" class="cls-1" width="91.798" height="10.175" rx="5.088" transform="translate(335.195 1416.511)"/>
        </g>
      </g>
      <g id="Group_539" data-name="Group 539">
        <g id="Group_534" data-name="Group 534">
          <rect id="Rectangle_904" data-name="Rectangle 904" class="cls-1" width="30.598" height="10.175" rx="5.088" transform="translate(304.599 1544.885)"/>
          <rect id="Rectangle_905" data-name="Rectangle 905" class="cls-1" width="30.598" height="10.175" rx="5.088" transform="translate(304.599 1557.933)"/>
        </g>
        <g id="Group_535" data-name="Group 535">
          <rect id="Rectangle_906" data-name="Rectangle 906" class="cls-1" width="91.8" height="10.175" rx="5.088" transform="translate(274 1570.56)"/>
          <rect id="Rectangle_907" data-name="Rectangle 907" class="cls-1" width="91.8" height="10.175" rx="5.088" transform="translate(274 1583.608)"/>
        </g>
        <g id="Group_536" data-name="Group 536">
          <rect id="Rectangle_908" data-name="Rectangle 908" class="cls-1" width="153" height="10.175" rx="5.088" transform="translate(243.4 1596.235)"/>
          <rect id="Rectangle_909" data-name="Rectangle 909" class="cls-1" width="153" height="10.175" rx="5.088" transform="translate(243.4 1609.282)"/>
        </g>
        <g id="Group_537" data-name="Group 537">
          <rect id="Rectangle_910" data-name="Rectangle 910" class="cls-1" width="91.798" height="10.175" rx="5.088" transform="translate(212.801 1621.91)"/>
          <rect id="Rectangle_911" data-name="Rectangle 911" class="cls-1" width="91.798" height="10.175" rx="5.088" transform="translate(212.801 1634.957)"/>
        </g>
        <g id="Group_538" data-name="Group 538">
          <rect id="Rectangle_912" data-name="Rectangle 912" class="cls-1" width="91.798" height="10.175" rx="5.088" transform="translate(335.195 1621.91)"/>
          <rect id="Rectangle_913" data-name="Rectangle 913" class="cls-1" width="91.798" height="10.175" rx="5.088" transform="translate(335.195 1634.957)"/>
        </g>
      </g>
    </g>
    <g id="Group_573" data-name="Group 573">
      <g id="Group_566" data-name="Group 566">
        <g id="Group_561" data-name="Group 561">
          <rect id="Rectangle_950" data-name="Rectangle 950" class="cls-1" width="30.598" height="10.175" rx="5.088" transform="translate(732.999 1506.583)"/>
          <rect id="Rectangle_951" data-name="Rectangle 951" class="cls-1" width="30.598" height="10.175" rx="5.088" transform="translate(732.999 1493.536)"/>
        </g>
        <g id="Group_562" data-name="Group 562">
          <rect id="Rectangle_952" data-name="Rectangle 952" class="cls-1" width="91.8" height="10.175" rx="5.088" transform="translate(702.399 1480.908)"/>
          <rect id="Rectangle_953" data-name="Rectangle 953" class="cls-1" width="91.8" height="10.175" rx="5.088" transform="translate(702.399 1467.861)"/>
        </g>
        <g id="Group_563" data-name="Group 563">
          <rect id="Rectangle_954" data-name="Rectangle 954" class="cls-1" width="153" height="10.175" rx="5.088" transform="translate(671.799 1455.234)"/>
          <rect id="Rectangle_955" data-name="Rectangle 955" class="cls-1" width="153" height="10.175" rx="5.088" transform="translate(671.799 1442.186)"/>
        </g>
        <g id="Group_564" data-name="Group 564">
          <rect id="Rectangle_956" data-name="Rectangle 956" class="cls-1" width="91.798" height="10.175" rx="5.088" transform="translate(641.201 1429.559)"/>
          <rect id="Rectangle_957" data-name="Rectangle 957" class="cls-1" width="91.798" height="10.175" rx="5.088" transform="translate(641.201 1416.511)"/>
        </g>
        <g id="Group_565" data-name="Group 565">
          <rect id="Rectangle_958" data-name="Rectangle 958" class="cls-1" width="91.798" height="10.175" rx="5.088" transform="translate(763.594 1429.559)"/>
          <rect id="Rectangle_959" data-name="Rectangle 959" class="cls-1" width="91.798" height="10.175" rx="5.088" transform="translate(763.594 1416.511)"/>
        </g>
      </g>
      <g id="Group_572" data-name="Group 572">
        <g id="Group_567" data-name="Group 567">
          <rect id="Rectangle_960" data-name="Rectangle 960" class="cls-1" width="30.598" height="10.175" rx="5.088" transform="translate(732.999 1544.885)"/>
          <rect id="Rectangle_961" data-name="Rectangle 961" class="cls-1" width="30.598" height="10.175" rx="5.088" transform="translate(732.999 1557.933)"/>
        </g>
        <g id="Group_568" data-name="Group 568">
          <rect id="Rectangle_962" data-name="Rectangle 962" class="cls-1" width="91.8" height="10.175" rx="5.088" transform="translate(702.399 1570.56)"/>
          <rect id="Rectangle_963" data-name="Rectangle 963" class="cls-1" width="91.8" height="10.175" rx="5.088" transform="translate(702.399 1583.608)"/>
        </g>
        <g id="Group_569" data-name="Group 569">
          <rect id="Rectangle_964" data-name="Rectangle 964" class="cls-1" width="153" height="10.175" rx="5.088" transform="translate(671.799 1596.235)"/>
          <rect id="Rectangle_965" data-name="Rectangle 965" class="cls-1" width="153" height="10.175" rx="5.088" transform="translate(671.799 1609.282)"/>
        </g>
        <g id="Group_570" data-name="Group 570">
          <rect id="Rectangle_966" data-name="Rectangle 966" class="cls-1" width="91.798" height="10.175" rx="5.088" transform="translate(641.201 1621.91)"/>
          <rect id="Rectangle_967" data-name="Rectangle 967" class="cls-1" width="91.798" height="10.175" rx="5.088" transform="translate(641.201 1634.957)"/>
        </g>
        <g id="Group_571" data-name="Group 571">
          <rect id="Rectangle_968" data-name="Rectangle 968" class="cls-1" width="91.798" height="10.175" rx="5.088" transform="translate(763.594 1621.91)"/>
          <rect id="Rectangle_969" data-name="Rectangle 969" class="cls-1" width="91.798" height="10.175" rx="5.088" transform="translate(763.594 1634.957)"/>
        </g>
      </g>
    </g>
    <g id="Group_606" data-name="Group 606">
      <g id="Group_599" data-name="Group 599">
        <g id="Group_594" data-name="Group 594">
          <rect id="Rectangle_1006" data-name="Rectangle 1006" class="cls-1" width="30.598" height="10.175" rx="5.088" transform="translate(1161.398 1506.583)"/>
          <rect id="Rectangle_1007" data-name="Rectangle 1007" class="cls-1" width="30.598" height="10.175" rx="5.088" transform="translate(1161.398 1493.536)"/>
        </g>
        <g id="Group_595" data-name="Group 595">
          <rect id="Rectangle_1008" data-name="Rectangle 1008" class="cls-1" width="91.8" height="10.175" rx="5.088" transform="translate(1130.799 1480.908)"/>
          <rect id="Rectangle_1009" data-name="Rectangle 1009" class="cls-1" width="91.8" height="10.175" rx="5.088" transform="translate(1130.799 1467.861)"/>
        </g>
        <g id="Group_596" data-name="Group 596">
          <rect id="Rectangle_1010" data-name="Rectangle 1010" class="cls-1" width="153" height="10.175" rx="5.088" transform="translate(1100.199 1455.234)"/>
          <rect id="Rectangle_1011" data-name="Rectangle 1011" class="cls-1" width="153" height="10.175" rx="5.088" transform="translate(1100.199 1442.186)"/>
        </g>
        <g id="Group_597" data-name="Group 597">
          <rect id="Rectangle_1012" data-name="Rectangle 1012" class="cls-1" width="91.798" height="10.175" rx="5.088" transform="translate(1069.6 1429.559)"/>
          <rect id="Rectangle_1013" data-name="Rectangle 1013" class="cls-1" width="91.798" height="10.175" rx="5.088" transform="translate(1069.6 1416.511)"/>
        </g>
        <g id="Group_598" data-name="Group 598">
          <rect id="Rectangle_1014" data-name="Rectangle 1014" class="cls-1" width="91.798" height="10.175" rx="5.088" transform="translate(1191.994 1429.559)"/>
          <rect id="Rectangle_1015" data-name="Rectangle 1015" class="cls-1" width="91.798" height="10.175" rx="5.088" transform="translate(1191.994 1416.511)"/>
        </g>
      </g>
      <g id="Group_605" data-name="Group 605">
        <g id="Group_600" data-name="Group 600">
          <rect id="Rectangle_1016" data-name="Rectangle 1016" class="cls-1" width="30.598" height="10.175" rx="5.088" transform="translate(1161.398 1544.885)"/>
          <rect id="Rectangle_1017" data-name="Rectangle 1017" class="cls-1" width="30.598" height="10.175" rx="5.088" transform="translate(1161.398 1557.933)"/>
        </g>
        <g id="Group_601" data-name="Group 601">
          <rect id="Rectangle_1018" data-name="Rectangle 1018" class="cls-1" width="91.8" height="10.175" rx="5.088" transform="translate(1130.799 1570.56)"/>
          <rect id="Rectangle_1019" data-name="Rectangle 1019" class="cls-1" width="91.8" height="10.175" rx="5.088" transform="translate(1130.799 1583.608)"/>
        </g>
        <g id="Group_602" data-name="Group 602">
          <rect id="Rectangle_1020" data-name="Rectangle 1020" class="cls-1" width="153" height="10.175" rx="5.088" transform="translate(1100.199 1596.235)"/>
          <rect id="Rectangle_1021" data-name="Rectangle 1021" class="cls-1" width="153" height="10.175" rx="5.088" transform="translate(1100.199 1609.282)"/>
        </g>
        <g id="Group_603" data-name="Group 603">
          <rect id="Rectangle_1022" data-name="Rectangle 1022" class="cls-1" width="91.798" height="10.175" rx="5.088" transform="translate(1069.6 1621.91)"/>
          <rect id="Rectangle_1023" data-name="Rectangle 1023" class="cls-1" width="91.798" height="10.175" rx="5.088" transform="translate(1069.6 1634.957)"/>
        </g>
        <g id="Group_604" data-name="Group 604">
          <rect id="Rectangle_1024" data-name="Rectangle 1024" class="cls-1" width="91.798" height="10.175" rx="5.088" transform="translate(1191.994 1621.91)"/>
          <rect id="Rectangle_1025" data-name="Rectangle 1025" class="cls-1" width="91.798" height="10.175" rx="5.088" transform="translate(1191.994 1634.957)"/>
        </g>
      </g>
    </g>
    <g id="Group_629" data-name="Group 629">
      <g id="Group_616" data-name="Group 616">
        <g id="Group_607" data-name="Group 607">
          <rect id="Rectangle_1026" data-name="Rectangle 1026" class="cls-1" width="61.201" height="10.175" rx="5.088" transform="translate(1742.796 1429.559)"/>
          <rect id="Rectangle_1027" data-name="Rectangle 1027" class="cls-1" width="61.201" height="10.175" rx="5.088" transform="translate(1742.796 1416.511)"/>
        </g>
        <g id="Group_608" data-name="Group 608">
          <rect id="Rectangle_1028" data-name="Rectangle 1028" class="cls-1" width="61.201" height="10.175" rx="5.088" transform="translate(1712.199 1455.234)"/>
          <rect id="Rectangle_1029" data-name="Rectangle 1029" class="cls-1" width="61.201" height="10.175" rx="5.088" transform="translate(1712.199 1442.186)"/>
        </g>
        <g id="Group_609" data-name="Group 609">
          <rect id="Rectangle_1030" data-name="Rectangle 1030" class="cls-1" width="61.201" height="10.175" rx="5.088" transform="translate(1681.598 1480.908)"/>
          <rect id="Rectangle_1031" data-name="Rectangle 1031" class="cls-1" width="61.201" height="10.175" rx="5.088" transform="translate(1681.598 1467.861)"/>
        </g>
        <g id="Group_610" data-name="Group 610">
          <rect id="Rectangle_1032" data-name="Rectangle 1032" class="cls-1" width="61.201" height="10.175" rx="5.088" transform="translate(1650.998 1506.583)"/>
          <rect id="Rectangle_1033" data-name="Rectangle 1033" class="cls-1" width="61.201" height="10.175" rx="5.088" transform="translate(1650.998 1493.536)"/>
        </g>
        <g id="Group_611" data-name="Group 611">
          <rect id="Rectangle_1034" data-name="Rectangle 1034" class="cls-1" width="61.201" height="10.175" rx="5.088" transform="translate(1620.397 1532.258)"/>
          <rect id="Rectangle_1035" data-name="Rectangle 1035" class="cls-1" width="61.201" height="10.175" rx="5.088" transform="translate(1620.397 1519.21)"/>
        </g>
        <g id="Group_612" data-name="Group 612">
          <rect id="Rectangle_1036" data-name="Rectangle 1036" class="cls-1" width="61.201" height="10.175" rx="5.088" transform="translate(1650.998 1557.933)"/>
          <rect id="Rectangle_1037" data-name="Rectangle 1037" class="cls-1" width="61.201" height="10.175" rx="5.088" transform="translate(1650.998 1544.885)"/>
        </g>
        <g id="Group_613" data-name="Group 613">
          <rect id="Rectangle_1038" data-name="Rectangle 1038" class="cls-1" width="61.201" height="10.175" rx="5.088" transform="translate(1681.598 1583.608)"/>
          <rect id="Rectangle_1039" data-name="Rectangle 1039" class="cls-1" width="61.201" height="10.175" rx="5.088" transform="translate(1681.598 1570.56)"/>
        </g>
        <g id="Group_614" data-name="Group 614">
          <rect id="Rectangle_1040" data-name="Rectangle 1040" class="cls-1" width="61.201" height="10.175" rx="5.088" transform="translate(1712.199 1609.282)"/>
          <rect id="Rectangle_1041" data-name="Rectangle 1041" class="cls-1" width="61.201" height="10.175" rx="5.088" transform="translate(1712.199 1596.235)"/>
        </g>
        <g id="Group_615" data-name="Group 615">
          <rect id="Rectangle_1042" data-name="Rectangle 1042" class="cls-1" width="61.201" height="10.175" rx="5.088" transform="translate(1742.799 1634.957)"/>
          <rect id="Rectangle_1043" data-name="Rectangle 1043" class="cls-1" width="61.201" height="10.175" rx="5.088" transform="translate(1742.799 1621.91)"/>
        </g>
      </g>
      <g id="Group_622" data-name="Group 622">
        <g id="Group_617" data-name="Group 617">
          <rect id="Rectangle_1044" data-name="Rectangle 1044" class="cls-1" width="30.598" height="10.175" rx="5.088" transform="translate(1589.797 1506.583)"/>
          <rect id="Rectangle_1045" data-name="Rectangle 1045" class="cls-1" width="30.598" height="10.175" rx="5.088" transform="translate(1589.797 1493.536)"/>
        </g>
        <g id="Group_618" data-name="Group 618">
          <rect id="Rectangle_1046" data-name="Rectangle 1046" class="cls-1" width="91.8" height="10.175" rx="5.088" transform="translate(1559.198 1480.908)"/>
          <rect id="Rectangle_1047" data-name="Rectangle 1047" class="cls-1" width="91.8" height="10.175" rx="5.088" transform="translate(1559.198 1467.861)"/>
        </g>
        <g id="Group_619" data-name="Group 619">
          <rect id="Rectangle_1048" data-name="Rectangle 1048" class="cls-1" width="153" height="10.175" rx="5.088" transform="translate(1528.598 1455.234)"/>
          <rect id="Rectangle_1049" data-name="Rectangle 1049" class="cls-1" width="153" height="10.175" rx="5.088" transform="translate(1528.598 1442.186)"/>
        </g>
        <g id="Group_620" data-name="Group 620">
          <rect id="Rectangle_1050" data-name="Rectangle 1050" class="cls-1" width="91.798" height="10.175" rx="5.088" transform="translate(1498 1429.559)"/>
          <rect id="Rectangle_1051" data-name="Rectangle 1051" class="cls-1" width="91.798" height="10.175" rx="5.088" transform="translate(1498 1416.511)"/>
        </g>
        <g id="Group_621" data-name="Group 621">
          <rect id="Rectangle_1052" data-name="Rectangle 1052" class="cls-1" width="91.798" height="10.175" rx="5.088" transform="translate(1620.393 1429.559)"/>
          <rect id="Rectangle_1053" data-name="Rectangle 1053" class="cls-1" width="91.798" height="10.175" rx="5.088" transform="translate(1620.393 1416.511)"/>
        </g>
      </g>
      <g id="Group_628" data-name="Group 628">
        <g id="Group_623" data-name="Group 623">
          <rect id="Rectangle_1054" data-name="Rectangle 1054" class="cls-1" width="30.598" height="10.175" rx="5.088" transform="translate(1589.797 1544.885)"/>
          <rect id="Rectangle_1055" data-name="Rectangle 1055" class="cls-1" width="30.598" height="10.175" rx="5.088" transform="translate(1589.797 1557.933)"/>
        </g>
        <g id="Group_624" data-name="Group 624">
          <rect id="Rectangle_1056" data-name="Rectangle 1056" class="cls-1" width="91.8" height="10.175" rx="5.088" transform="translate(1559.198 1570.56)"/>
          <rect id="Rectangle_1057" data-name="Rectangle 1057" class="cls-1" width="91.8" height="10.175" rx="5.088" transform="translate(1559.198 1583.608)"/>
        </g>
        <g id="Group_625" data-name="Group 625">
          <rect id="Rectangle_1058" data-name="Rectangle 1058" class="cls-1" width="153" height="10.175" rx="5.088" transform="translate(1528.598 1596.235)"/>
          <rect id="Rectangle_1059" data-name="Rectangle 1059" class="cls-1" width="153" height="10.175" rx="5.088" transform="translate(1528.598 1609.282)"/>
        </g>
        <g id="Group_626" data-name="Group 626">
          <rect id="Rectangle_1060" data-name="Rectangle 1060" class="cls-1" width="91.798" height="10.175" rx="5.088" transform="translate(1498 1621.91)"/>
          <rect id="Rectangle_1061" data-name="Rectangle 1061" class="cls-1" width="91.798" height="10.175" rx="5.088" transform="translate(1498 1634.957)"/>
        </g>
        <g id="Group_627" data-name="Group 627">
          <rect id="Rectangle_1062" data-name="Rectangle 1062" class="cls-1" width="91.798" height="10.175" rx="5.088" transform="translate(1620.393 1621.91)"/>
          <rect id="Rectangle_1063" data-name="Rectangle 1063" class="cls-1" width="91.798" height="10.175" rx="5.088" transform="translate(1620.393 1634.957)"/>
        </g>
      </g>
    </g>
  </g>
</svg>
