<svg xmlns="http://www.w3.org/2000/svg" width="1922.943" height="1081.224" viewBox="0 0 1922.943 1081.224">
  <g id="workBg" transform="translate(-0.557 -1079.26)">
    <g id="Group_635" data-name="Group 635" transform="translate(1 -2.001)">
      <path id="Path_63" data-name="Path 63" d="M47.3,1101.729a5.255,5.255,0,0,1-5.255,5.254H6.312a5.254,5.254,0,0,1-5.254-5.254h0a5.254,5.254,0,0,1,5.254-5.255H42.043a5.255,5.255,0,0,1,5.255,5.255Z" fill="#1f376b" stroke="#fff" stroke-miterlimit="10" stroke-width="1.003"/>
      <path id="Path_64" data-name="Path 64" d="M47.3,1087.016a5.255,5.255,0,0,1-5.255,5.255H6.312a5.254,5.254,0,0,1-5.254-5.255h0a5.254,5.254,0,0,1,5.254-5.254H42.043a5.255,5.255,0,0,1,5.255,5.254Z" fill="#1f376b" stroke="#fff" stroke-miterlimit="10" stroke-width="1.003"/>
      <path id="Path_65" data-name="Path 65" d="M116.657,1101.729a5.254,5.254,0,0,1-5.255,5.254H75.672a5.254,5.254,0,0,1-5.255-5.254h0a5.254,5.254,0,0,1,5.255-5.255H111.4a5.254,5.254,0,0,1,5.255,5.255Z" fill="#1f376b" stroke="#fff" stroke-miterlimit="10" stroke-width="1.003"/>
      <path id="Path_66" data-name="Path 66" d="M116.657,1087.016a5.254,5.254,0,0,1-5.255,5.255H75.672a5.254,5.254,0,0,1-5.255-5.255h0a5.254,5.254,0,0,1,5.255-5.254H111.4a5.254,5.254,0,0,1,5.255,5.254Z" fill="#1f376b" stroke="#fff" stroke-miterlimit="10" stroke-width="1.003"/>
      <path id="Path_67" data-name="Path 67" d="M186.016,1101.729a5.254,5.254,0,0,1-5.254,5.254H145.031a5.254,5.254,0,0,1-5.254-5.254h0a5.254,5.254,0,0,1,5.254-5.255h35.731a5.254,5.254,0,0,1,5.254,5.255Z" fill="#1f376b" stroke="#fff" stroke-miterlimit="10" stroke-width="1.003"/>
      <path id="Path_68" data-name="Path 68" d="M186.016,1087.016a5.254,5.254,0,0,1-5.254,5.255H145.031a5.254,5.254,0,0,1-5.254-5.255h0a5.254,5.254,0,0,1,5.254-5.254h35.731a5.254,5.254,0,0,1,5.254,5.254Z" fill="#1f376b" stroke="#fff" stroke-miterlimit="10" stroke-width="1.003"/>
      <path id="Path_69" data-name="Path 69" d="M255.376,1101.729a5.254,5.254,0,0,1-5.255,5.254h-35.73a5.254,5.254,0,0,1-5.255-5.254h0a5.254,5.254,0,0,1,5.255-5.255h35.73a5.254,5.254,0,0,1,5.255,5.255Z" fill="#1f376b" stroke="#fff" stroke-miterlimit="10" stroke-width="1.003"/>
      <path id="Path_70" data-name="Path 70" d="M255.376,1087.016a5.254,5.254,0,0,1-5.255,5.255h-35.73a5.254,5.254,0,0,1-5.255-5.255h0a5.254,5.254,0,0,1,5.255-5.254h35.73a5.254,5.254,0,0,1,5.255,5.254Z" fill="#1f376b" stroke="#fff" stroke-miterlimit="10" stroke-width="1.003"/>
      <path id="Path_71" data-name="Path 71" d="M324.735,1101.729a5.254,5.254,0,0,1-5.254,5.254H283.75a5.255,5.255,0,0,1-5.255-5.254h0a5.255,5.255,0,0,1,5.255-5.255h35.731a5.254,5.254,0,0,1,5.254,5.255Z" fill="#1f376b" stroke="#fff" stroke-miterlimit="10" stroke-width="1.003"/>
      <path id="Path_72" data-name="Path 72" d="M324.735,1087.016a5.254,5.254,0,0,1-5.254,5.255H283.75a5.255,5.255,0,0,1-5.255-5.255h0a5.255,5.255,0,0,1,5.255-5.254h35.731a5.254,5.254,0,0,1,5.254,5.254Z" fill="#1f376b" stroke="#fff" stroke-miterlimit="10" stroke-width="1.003"/>
      <path id="Path_73" data-name="Path 73" d="M394.094,1101.729a5.254,5.254,0,0,1-5.254,5.254H353.109a5.254,5.254,0,0,1-5.254-5.254h0a5.254,5.254,0,0,1,5.254-5.255H388.84a5.254,5.254,0,0,1,5.254,5.255Z" transform="translate(0.37)" fill="#1f376b" stroke="#fff" stroke-miterlimit="10" stroke-width="1.003"/>
      <path id="Path_74" data-name="Path 74" d="M394.094,1087.016a5.254,5.254,0,0,1-5.254,5.255H353.109a5.254,5.254,0,0,1-5.254-5.255h0a5.254,5.254,0,0,1,5.254-5.254H388.84a5.254,5.254,0,0,1,5.254,5.254Z" transform="translate(0.37)" fill="#1f376b" stroke="#fff" stroke-miterlimit="10" stroke-width="1.003"/>
      <path id="Path_75" data-name="Path 75" d="M463.454,1101.729a5.254,5.254,0,0,1-5.255,5.254h-35.73a5.254,5.254,0,0,1-5.255-5.254h0a5.254,5.254,0,0,1,5.255-5.255H458.2a5.254,5.254,0,0,1,5.255,5.255Z" transform="translate(0.444)" fill="#1f376b" stroke="#fff" stroke-miterlimit="10" stroke-width="1.003"/>
      <path id="Path_76" data-name="Path 76" d="M463.454,1087.016a5.254,5.254,0,0,1-5.255,5.255h-35.73a5.254,5.254,0,0,1-5.255-5.255h0a5.254,5.254,0,0,1,5.255-5.254H458.2a5.254,5.254,0,0,1,5.255,5.254Z" transform="translate(0.444)" fill="#1f376b" stroke="#fff" stroke-miterlimit="10" stroke-width="1.003"/>
      <path id="Path_77" data-name="Path 77" d="M532.813,1101.729a5.254,5.254,0,0,1-5.254,5.254H491.828a5.254,5.254,0,0,1-5.254-5.254h0a5.254,5.254,0,0,1,5.254-5.255h35.731a5.254,5.254,0,0,1,5.254,5.255Z" transform="translate(0.518)" fill="#1f376b" stroke="#fff" stroke-miterlimit="10" stroke-width="1.003"/>
      <path id="Path_78" data-name="Path 78" d="M532.813,1087.016a5.254,5.254,0,0,1-5.254,5.255H491.828a5.254,5.254,0,0,1-5.254-5.255h0a5.254,5.254,0,0,1,5.254-5.254h35.731a5.254,5.254,0,0,1,5.254,5.254Z" transform="translate(0.518)" fill="#1f376b" stroke="#fff" stroke-miterlimit="10" stroke-width="1.003"/>
      <path id="Path_79" data-name="Path 79" d="M602.173,1101.729a5.254,5.254,0,0,1-5.255,5.254h-35.73a5.254,5.254,0,0,1-5.255-5.254h0a5.254,5.254,0,0,1,5.255-5.255h35.73a5.254,5.254,0,0,1,5.255,5.255Z" transform="translate(0.592)" fill="#1f376b" stroke="#fff" stroke-miterlimit="10" stroke-width="1.003"/>
      <path id="Path_80" data-name="Path 80" d="M602.173,1087.016a5.254,5.254,0,0,1-5.255,5.255h-35.73a5.254,5.254,0,0,1-5.255-5.255h0a5.254,5.254,0,0,1,5.255-5.254h35.73a5.254,5.254,0,0,1,5.255,5.254Z" transform="translate(0.592)" fill="#1f376b" stroke="#fff" stroke-miterlimit="10" stroke-width="1.003"/>
      <path id="Path_81" data-name="Path 81" d="M671.532,1101.729a5.254,5.254,0,0,1-5.254,5.254H630.547a5.255,5.255,0,0,1-5.255-5.254h0a5.255,5.255,0,0,1,5.255-5.255h35.731a5.254,5.254,0,0,1,5.254,5.255Z" transform="translate(0.666)" fill="#1f376b" stroke="#fff" stroke-miterlimit="10" stroke-width="1.003"/>
      <path id="Path_82" data-name="Path 82" d="M671.532,1087.016a5.254,5.254,0,0,1-5.254,5.255H630.547a5.255,5.255,0,0,1-5.255-5.255h0a5.255,5.255,0,0,1,5.255-5.254h35.731a5.254,5.254,0,0,1,5.254,5.254Z" transform="translate(0.666)" fill="#1f376b" stroke="#fff" stroke-miterlimit="10" stroke-width="1.003"/>
      <path id="Path_83" data-name="Path 83" d="M740.891,1101.729a5.254,5.254,0,0,1-5.254,5.254H699.906a5.254,5.254,0,0,1-5.254-5.254h0a5.254,5.254,0,0,1,5.254-5.255h35.731a5.254,5.254,0,0,1,5.254,5.255Z" transform="translate(0.74)" fill="#1f376b" stroke="#fff" stroke-miterlimit="10" stroke-width="1.003"/>
      <path id="Path_84" data-name="Path 84" d="M740.891,1087.016a5.254,5.254,0,0,1-5.254,5.255H699.906a5.254,5.254,0,0,1-5.254-5.255h0a5.254,5.254,0,0,1,5.254-5.254h35.731a5.254,5.254,0,0,1,5.254,5.254Z" transform="translate(0.74)" fill="#1f376b" stroke="#fff" stroke-miterlimit="10" stroke-width="1.003"/>
      <path id="Path_85" data-name="Path 85" d="M810.251,1101.729a5.254,5.254,0,0,1-5.255,5.254h-35.73a5.254,5.254,0,0,1-5.255-5.254h0a5.254,5.254,0,0,1,5.255-5.255H805a5.254,5.254,0,0,1,5.255,5.255Z" transform="translate(0.814)" fill="#1f376b" stroke="#fff" stroke-miterlimit="10" stroke-width="1.003"/>
      <path id="Path_86" data-name="Path 86" d="M810.251,1087.016a5.254,5.254,0,0,1-5.255,5.255h-35.73a5.254,5.254,0,0,1-5.255-5.255h0a5.254,5.254,0,0,1,5.255-5.254H805a5.254,5.254,0,0,1,5.255,5.254Z" transform="translate(0.814)" fill="#1f376b" stroke="#fff" stroke-miterlimit="10" stroke-width="1.003"/>
      <path id="Path_87" data-name="Path 87" d="M879.61,1101.729a5.254,5.254,0,0,1-5.254,5.254H838.625a5.254,5.254,0,0,1-5.254-5.254h0a5.254,5.254,0,0,1,5.254-5.255h35.731a5.254,5.254,0,0,1,5.254,5.255Z" transform="translate(0.888)" fill="#1f376b" stroke="#fff" stroke-miterlimit="10" stroke-width="1.003"/>
      <path id="Path_88" data-name="Path 88" d="M879.61,1087.016a5.254,5.254,0,0,1-5.254,5.255H838.625a5.254,5.254,0,0,1-5.254-5.255h0a5.254,5.254,0,0,1,5.254-5.254h35.731a5.254,5.254,0,0,1,5.254,5.254Z" transform="translate(0.888)" fill="#1f376b" stroke="#fff" stroke-miterlimit="10" stroke-width="1.003"/>
      <path id="Path_89" data-name="Path 89" d="M948.969,1101.729a5.254,5.254,0,0,1-5.255,5.254H907.983a5.254,5.254,0,0,1-5.254-5.254h0a5.254,5.254,0,0,1,5.254-5.255h35.731a5.255,5.255,0,0,1,5.255,5.255Z" transform="translate(0.962)" fill="#1f376b" stroke="#fff" stroke-miterlimit="10" stroke-width="1.003"/>
      <path id="Path_90" data-name="Path 90" d="M948.969,1087.016a5.255,5.255,0,0,1-5.255,5.255H907.983a5.254,5.254,0,0,1-5.254-5.255h0a5.254,5.254,0,0,1,5.254-5.254h35.731a5.254,5.254,0,0,1,5.255,5.254Z" transform="translate(0.962)" fill="#1f376b" stroke="#fff" stroke-miterlimit="10" stroke-width="1.003"/>
      <path id="Path_91" data-name="Path 91" d="M1018.328,1101.729a5.254,5.254,0,0,1-5.255,5.254h-35.73a5.254,5.254,0,0,1-5.255-5.254h0a5.254,5.254,0,0,1,5.255-5.255h35.73a5.254,5.254,0,0,1,5.255,5.255Z" transform="translate(1.036)" fill="#1f376b" stroke="#fff" stroke-miterlimit="10" stroke-width="1.003"/>
      <path id="Path_92" data-name="Path 92" d="M1018.328,1087.016a5.254,5.254,0,0,1-5.255,5.255h-35.73a5.254,5.254,0,0,1-5.255-5.255h0a5.254,5.254,0,0,1,5.255-5.254h35.73a5.254,5.254,0,0,1,5.255,5.254Z" transform="translate(1.036)" fill="#1f376b" stroke="#fff" stroke-miterlimit="10" stroke-width="1.003"/>
      <path id="Path_93" data-name="Path 93" d="M1087.687,1101.729a5.254,5.254,0,0,1-5.254,5.254H1046.7a5.254,5.254,0,0,1-5.254-5.254h0a5.254,5.254,0,0,1,5.254-5.255h35.731a5.254,5.254,0,0,1,5.254,5.255Z" transform="translate(1.11)" fill="#1f376b" stroke="#fff" stroke-miterlimit="10" stroke-width="1.003"/>
      <path id="Path_94" data-name="Path 94" d="M1087.687,1087.016a5.254,5.254,0,0,1-5.254,5.255H1046.7a5.254,5.254,0,0,1-5.254-5.255h0a5.254,5.254,0,0,1,5.254-5.254h35.731a5.254,5.254,0,0,1,5.254,5.254Z" transform="translate(1.11)" fill="#1f376b" stroke="#fff" stroke-miterlimit="10" stroke-width="1.003"/>
      <path id="Path_95" data-name="Path 95" d="M1157.047,1101.729a5.254,5.254,0,0,1-5.255,5.254h-35.73a5.254,5.254,0,0,1-5.255-5.254h0a5.254,5.254,0,0,1,5.255-5.255h35.73a5.254,5.254,0,0,1,5.255,5.255Z" transform="translate(1.184)" fill="#1f376b" stroke="#fff" stroke-miterlimit="10" stroke-width="1.003"/>
      <path id="Path_96" data-name="Path 96" d="M1157.047,1087.016a5.254,5.254,0,0,1-5.255,5.255h-35.73a5.254,5.254,0,0,1-5.255-5.255h0a5.254,5.254,0,0,1,5.255-5.254h35.73a5.254,5.254,0,0,1,5.255,5.254Z" transform="translate(1.184)" fill="#1f376b" stroke="#fff" stroke-miterlimit="10" stroke-width="1.003"/>
      <path id="Path_97" data-name="Path 97" d="M1226.406,1101.729a5.254,5.254,0,0,1-5.254,5.254h-35.731a5.254,5.254,0,0,1-5.254-5.254h0a5.254,5.254,0,0,1,5.254-5.255h35.731a5.254,5.254,0,0,1,5.254,5.255Z" transform="translate(1.258)" fill="#1f376b" stroke="#fff" stroke-miterlimit="10" stroke-width="1.003"/>
      <path id="Path_98" data-name="Path 98" d="M1226.406,1087.016a5.254,5.254,0,0,1-5.254,5.255h-35.731a5.254,5.254,0,0,1-5.254-5.255h0a5.254,5.254,0,0,1,5.254-5.254h35.731a5.254,5.254,0,0,1,5.254,5.254Z" transform="translate(1.258)" fill="#1f376b" stroke="#fff" stroke-miterlimit="10" stroke-width="1.003"/>
      <path id="Path_99" data-name="Path 99" d="M1295.765,1101.729a5.254,5.254,0,0,1-5.254,5.254H1254.78a5.254,5.254,0,0,1-5.254-5.254h0a5.254,5.254,0,0,1,5.254-5.255h35.731a5.254,5.254,0,0,1,5.254,5.255Z" transform="translate(1.332)" fill="#1f376b" stroke="#fff" stroke-miterlimit="10" stroke-width="1.003"/>
      <path id="Path_100" data-name="Path 100" d="M1295.765,1087.016a5.254,5.254,0,0,1-5.254,5.255H1254.78a5.254,5.254,0,0,1-5.254-5.255h0a5.254,5.254,0,0,1,5.254-5.254h35.731a5.254,5.254,0,0,1,5.254,5.254Z" transform="translate(1.332)" fill="#1f376b" stroke="#fff" stroke-miterlimit="10" stroke-width="1.003"/>
      <path id="Path_101" data-name="Path 101" d="M1365.125,1101.729a5.254,5.254,0,0,1-5.255,5.254h-35.73a5.254,5.254,0,0,1-5.255-5.254h0a5.254,5.254,0,0,1,5.255-5.255h35.73a5.254,5.254,0,0,1,5.255,5.255Z" transform="translate(1.406)" fill="#1f376b" stroke="#fff" stroke-miterlimit="10" stroke-width="1.003"/>
      <path id="Path_102" data-name="Path 102" d="M1365.125,1087.016a5.254,5.254,0,0,1-5.255,5.255h-35.73a5.254,5.254,0,0,1-5.255-5.255h0a5.254,5.254,0,0,1,5.255-5.254h35.73a5.254,5.254,0,0,1,5.255,5.254Z" transform="translate(1.406)" fill="#1f376b" stroke="#fff" stroke-miterlimit="10" stroke-width="1.003"/>
      <path id="Path_103" data-name="Path 103" d="M1434.484,1101.729a5.254,5.254,0,0,1-5.254,5.254H1393.5a5.254,5.254,0,0,1-5.254-5.254h0a5.254,5.254,0,0,1,5.254-5.255h35.731a5.254,5.254,0,0,1,5.254,5.255Z" transform="translate(1.48)" fill="#1f376b" stroke="#fff" stroke-miterlimit="10" stroke-width="1.003"/>
      <path id="Path_104" data-name="Path 104" d="M1434.484,1087.016a5.254,5.254,0,0,1-5.254,5.255H1393.5a5.254,5.254,0,0,1-5.254-5.255h0a5.254,5.254,0,0,1,5.254-5.254h35.731a5.254,5.254,0,0,1,5.254,5.254Z" transform="translate(1.48)" fill="#1f376b" stroke="#fff" stroke-miterlimit="10" stroke-width="1.003"/>
      <path id="Path_105" data-name="Path 105" d="M1503.844,1101.729a5.254,5.254,0,0,1-5.255,5.254h-35.73a5.254,5.254,0,0,1-5.255-5.254h0a5.254,5.254,0,0,1,5.255-5.255h35.73a5.254,5.254,0,0,1,5.255,5.255Z" transform="translate(1.554)" fill="#1f376b" stroke="#fff" stroke-miterlimit="10" stroke-width="1.003"/>
      <path id="Path_106" data-name="Path 106" d="M1503.844,1087.016a5.254,5.254,0,0,1-5.255,5.255h-35.73a5.254,5.254,0,0,1-5.255-5.255h0a5.254,5.254,0,0,1,5.255-5.254h35.73a5.254,5.254,0,0,1,5.255,5.254Z" transform="translate(1.554)" fill="#1f376b" stroke="#fff" stroke-miterlimit="10" stroke-width="1.003"/>
      <path id="Path_107" data-name="Path 107" d="M1573.2,1101.729a5.254,5.254,0,0,1-5.254,5.254h-35.731a5.255,5.255,0,0,1-5.255-5.254h0a5.255,5.255,0,0,1,5.255-5.255h35.731a5.254,5.254,0,0,1,5.254,5.255Z" transform="translate(1.628)" fill="#1f376b" stroke="#fff" stroke-miterlimit="10" stroke-width="1.003"/>
      <path id="Path_108" data-name="Path 108" d="M1573.2,1087.016a5.254,5.254,0,0,1-5.254,5.255h-35.731a5.255,5.255,0,0,1-5.255-5.255h0a5.255,5.255,0,0,1,5.255-5.254h35.731a5.254,5.254,0,0,1,5.254,5.254Z" transform="translate(1.628)" fill="#1f376b" stroke="#fff" stroke-miterlimit="10" stroke-width="1.003"/>
      <path id="Path_109" data-name="Path 109" d="M1642.562,1101.729a5.254,5.254,0,0,1-5.254,5.254h-35.731a5.254,5.254,0,0,1-5.254-5.254h0a5.254,5.254,0,0,1,5.254-5.255h35.731a5.254,5.254,0,0,1,5.254,5.255Z" transform="translate(1.998)" fill="#1f376b" stroke="#fff" stroke-miterlimit="10" stroke-width="1.003"/>
      <path id="Path_110" data-name="Path 110" d="M1642.562,1087.016a5.254,5.254,0,0,1-5.254,5.255h-35.731a5.254,5.254,0,0,1-5.254-5.255h0a5.254,5.254,0,0,1,5.254-5.254h35.731a5.254,5.254,0,0,1,5.254,5.254Z" transform="translate(1.998)" fill="#1f376b" stroke="#fff" stroke-miterlimit="10" stroke-width="1.003"/>
      <path id="Path_111" data-name="Path 111" d="M1711.922,1101.729a5.254,5.254,0,0,1-5.255,5.254h-35.73a5.254,5.254,0,0,1-5.255-5.254h0a5.254,5.254,0,0,1,5.255-5.255h35.73a5.254,5.254,0,0,1,5.255,5.255Z" transform="translate(1.998)" fill="#1f376b" stroke="#fff" stroke-miterlimit="10" stroke-width="1.003"/>
      <path id="Path_112" data-name="Path 112" d="M1711.922,1087.016a5.254,5.254,0,0,1-5.255,5.255h-35.73a5.254,5.254,0,0,1-5.255-5.255h0a5.254,5.254,0,0,1,5.255-5.254h35.73a5.254,5.254,0,0,1,5.255,5.254Z" transform="translate(1.998)" fill="#1f376b" stroke="#fff" stroke-miterlimit="10" stroke-width="1.003"/>
      <path id="Path_113" data-name="Path 113" d="M1781.281,1101.729a5.254,5.254,0,0,1-5.254,5.254H1740.3a5.254,5.254,0,0,1-5.254-5.254h0a5.254,5.254,0,0,1,5.254-5.255h35.731a5.254,5.254,0,0,1,5.254,5.255Z" transform="translate(1.998)" fill="#1f376b" stroke="#fff" stroke-miterlimit="10" stroke-width="1.003"/>
      <path id="Path_114" data-name="Path 114" d="M1781.281,1087.016a5.254,5.254,0,0,1-5.254,5.255H1740.3a5.254,5.254,0,0,1-5.254-5.255h0a5.254,5.254,0,0,1,5.254-5.254h35.731a5.254,5.254,0,0,1,5.254,5.254Z" transform="translate(1.998)" fill="#1f376b" stroke="#fff" stroke-miterlimit="10" stroke-width="1.003"/>
      <path id="Path_115" data-name="Path 115" d="M1850.641,1101.729a5.255,5.255,0,0,1-5.255,5.254h-35.73a5.254,5.254,0,0,1-5.255-5.254h0a5.254,5.254,0,0,1,5.255-5.255h35.73a5.255,5.255,0,0,1,5.255,5.255Z" transform="translate(1.998)" fill="#1f376b" stroke="#fff" stroke-miterlimit="10" stroke-width="1.003"/>
      <path id="Path_116" data-name="Path 116" d="M1850.641,1087.016a5.255,5.255,0,0,1-5.255,5.255h-35.73a5.254,5.254,0,0,1-5.255-5.255h0a5.254,5.254,0,0,1,5.255-5.254h35.73a5.255,5.255,0,0,1,5.255,5.254Z" transform="translate(1.998)" fill="#1f376b" stroke="#fff" stroke-miterlimit="10" stroke-width="1.003"/>
      <path id="Path_117" data-name="Path 117" d="M1920,1101.729a5.254,5.254,0,0,1-5.254,5.254h-35.731a5.255,5.255,0,0,1-5.255-5.254h0a5.255,5.255,0,0,1,5.255-5.255h35.731a5.254,5.254,0,0,1,5.254,5.255Z" transform="translate(1.998)" fill="#1f376b" stroke="#fff" stroke-miterlimit="10" stroke-width="1.003"/>
      <path id="Path_118" data-name="Path 118" d="M1920,1087.016a5.254,5.254,0,0,1-5.254,5.255h-35.731a5.255,5.255,0,0,1-5.255-5.255h0a5.255,5.255,0,0,1,5.255-5.254h35.731a5.254,5.254,0,0,1,5.254,5.254Z" transform="translate(1.998)" fill="#1f376b" stroke="#fff" stroke-miterlimit="10" stroke-width="1.003"/>
    </g>
    <g id="Group_638" data-name="Group 638" transform="translate(0 5)">
      <path id="Path_258" data-name="Path 258" d="M47.3,2149.729a5.254,5.254,0,0,1-5.255,5.254H6.312a5.253,5.253,0,0,1-5.254-5.254h0a5.254,5.254,0,0,1,5.254-5.255H42.043a5.255,5.255,0,0,1,5.255,5.255Z" fill="#1f376b" stroke="#fff" stroke-miterlimit="10" stroke-width="1.003"/>
      <path id="Path_259" data-name="Path 259" d="M47.3,2135.016a5.255,5.255,0,0,1-5.255,5.255H6.312a5.254,5.254,0,0,1-5.254-5.255h0a5.254,5.254,0,0,1,5.254-5.254H42.043a5.255,5.255,0,0,1,5.255,5.254Z" fill="#1f376b" stroke="#fff" stroke-miterlimit="10" stroke-width="1.003"/>
      <path id="Path_260" data-name="Path 260" d="M116.657,2149.729a5.254,5.254,0,0,1-5.255,5.254H75.672a5.254,5.254,0,0,1-5.255-5.254h0a5.254,5.254,0,0,1,5.255-5.255H111.4a5.254,5.254,0,0,1,5.255,5.255Z" fill="#1f376b" stroke="#fff" stroke-miterlimit="10" stroke-width="1.003"/>
      <path id="Path_261" data-name="Path 261" d="M116.657,2135.016a5.254,5.254,0,0,1-5.255,5.255H75.672a5.254,5.254,0,0,1-5.255-5.255h0a5.254,5.254,0,0,1,5.255-5.254H111.4a5.254,5.254,0,0,1,5.255,5.254Z" fill="#1f376b" stroke="#fff" stroke-miterlimit="10" stroke-width="1.003"/>
      <path id="Path_262" data-name="Path 262" d="M186.016,2149.729a5.253,5.253,0,0,1-5.254,5.254H145.031a5.253,5.253,0,0,1-5.254-5.254h0a5.254,5.254,0,0,1,5.254-5.255h35.731a5.254,5.254,0,0,1,5.254,5.255Z" fill="#1f376b" stroke="#fff" stroke-miterlimit="10" stroke-width="1.003"/>
      <path id="Path_263" data-name="Path 263" d="M186.016,2135.016a5.254,5.254,0,0,1-5.254,5.255H145.031a5.254,5.254,0,0,1-5.254-5.255h0a5.254,5.254,0,0,1,5.254-5.254h35.731a5.254,5.254,0,0,1,5.254,5.254Z" fill="#1f376b" stroke="#fff" stroke-miterlimit="10" stroke-width="1.003"/>
      <path id="Path_264" data-name="Path 264" d="M255.376,2149.729a5.254,5.254,0,0,1-5.255,5.254h-35.73a5.254,5.254,0,0,1-5.255-5.254h0a5.254,5.254,0,0,1,5.255-5.255h35.73a5.254,5.254,0,0,1,5.255,5.255Z" fill="#1f376b" stroke="#fff" stroke-miterlimit="10" stroke-width="1.003"/>
      <path id="Path_265" data-name="Path 265" d="M255.376,2135.016a5.254,5.254,0,0,1-5.255,5.255h-35.73a5.254,5.254,0,0,1-5.255-5.255h0a5.254,5.254,0,0,1,5.255-5.254h35.73a5.254,5.254,0,0,1,5.255,5.254Z" fill="#1f376b" stroke="#fff" stroke-miterlimit="10" stroke-width="1.003"/>
      <path id="Path_266" data-name="Path 266" d="M324.735,2149.729a5.253,5.253,0,0,1-5.254,5.254H283.75a5.254,5.254,0,0,1-5.255-5.254h0a5.255,5.255,0,0,1,5.255-5.255h35.731a5.254,5.254,0,0,1,5.254,5.255Z" fill="#1f376b" stroke="#fff" stroke-miterlimit="10" stroke-width="1.003"/>
      <path id="Path_267" data-name="Path 267" d="M324.735,2135.016a5.254,5.254,0,0,1-5.254,5.255H283.75a5.255,5.255,0,0,1-5.255-5.255h0a5.255,5.255,0,0,1,5.255-5.254h35.731a5.254,5.254,0,0,1,5.254,5.254Z" fill="#1f376b" stroke="#fff" stroke-miterlimit="10" stroke-width="1.003"/>
      <path id="Path_268" data-name="Path 268" d="M394.094,2149.729a5.253,5.253,0,0,1-5.254,5.254H353.109a5.253,5.253,0,0,1-5.254-5.254h0a5.254,5.254,0,0,1,5.254-5.255H388.84a5.254,5.254,0,0,1,5.254,5.255Z" transform="translate(0.37)" fill="#1f376b" stroke="#fff" stroke-miterlimit="10" stroke-width="1.003"/>
      <path id="Path_269" data-name="Path 269" d="M394.094,2135.016a5.254,5.254,0,0,1-5.254,5.255H353.109a5.254,5.254,0,0,1-5.254-5.255h0a5.254,5.254,0,0,1,5.254-5.254H388.84a5.254,5.254,0,0,1,5.254,5.254Z" transform="translate(0.37)" fill="#1f376b" stroke="#fff" stroke-miterlimit="10" stroke-width="1.003"/>
      <path id="Path_270" data-name="Path 270" d="M463.454,2149.729a5.254,5.254,0,0,1-5.255,5.254h-35.73a5.254,5.254,0,0,1-5.255-5.254h0a5.254,5.254,0,0,1,5.255-5.255H458.2a5.254,5.254,0,0,1,5.255,5.255Z" transform="translate(0.444)" fill="#1f376b" stroke="#fff" stroke-miterlimit="10" stroke-width="1.003"/>
      <path id="Path_271" data-name="Path 271" d="M463.454,2135.016a5.254,5.254,0,0,1-5.255,5.255h-35.73a5.254,5.254,0,0,1-5.255-5.255h0a5.254,5.254,0,0,1,5.255-5.254H458.2a5.254,5.254,0,0,1,5.255,5.254Z" transform="translate(0.444)" fill="#1f376b" stroke="#fff" stroke-miterlimit="10" stroke-width="1.003"/>
      <path id="Path_272" data-name="Path 272" d="M532.813,2149.729a5.253,5.253,0,0,1-5.254,5.254H491.828a5.253,5.253,0,0,1-5.254-5.254h0a5.254,5.254,0,0,1,5.254-5.255h35.731a5.254,5.254,0,0,1,5.254,5.255Z" transform="translate(0.518)" fill="#1f376b" stroke="#fff" stroke-miterlimit="10" stroke-width="1.003"/>
      <path id="Path_273" data-name="Path 273" d="M532.813,2135.016a5.254,5.254,0,0,1-5.254,5.255H491.828a5.254,5.254,0,0,1-5.254-5.255h0a5.254,5.254,0,0,1,5.254-5.254h35.731a5.254,5.254,0,0,1,5.254,5.254Z" transform="translate(0.518)" fill="#1f376b" stroke="#fff" stroke-miterlimit="10" stroke-width="1.003"/>
      <path id="Path_274" data-name="Path 274" d="M602.173,2149.729a5.254,5.254,0,0,1-5.255,5.254h-35.73a5.254,5.254,0,0,1-5.255-5.254h0a5.254,5.254,0,0,1,5.255-5.255h35.73a5.254,5.254,0,0,1,5.255,5.255Z" transform="translate(0.592)" fill="#1f376b" stroke="#fff" stroke-miterlimit="10" stroke-width="1.003"/>
      <path id="Path_275" data-name="Path 275" d="M602.173,2135.016a5.254,5.254,0,0,1-5.255,5.255h-35.73a5.254,5.254,0,0,1-5.255-5.255h0a5.254,5.254,0,0,1,5.255-5.254h35.73a5.254,5.254,0,0,1,5.255,5.254Z" transform="translate(0.592)" fill="#1f376b" stroke="#fff" stroke-miterlimit="10" stroke-width="1.003"/>
      <path id="Path_276" data-name="Path 276" d="M671.532,2149.729a5.253,5.253,0,0,1-5.254,5.254H630.547a5.254,5.254,0,0,1-5.255-5.254h0a5.255,5.255,0,0,1,5.255-5.255h35.731a5.254,5.254,0,0,1,5.254,5.255Z" transform="translate(0.666)" fill="#1f376b" stroke="#fff" stroke-miterlimit="10" stroke-width="1.003"/>
      <path id="Path_277" data-name="Path 277" d="M671.532,2135.016a5.254,5.254,0,0,1-5.254,5.255H630.547a5.255,5.255,0,0,1-5.255-5.255h0a5.255,5.255,0,0,1,5.255-5.254h35.731a5.254,5.254,0,0,1,5.254,5.254Z" transform="translate(0.666)" fill="#1f376b" stroke="#fff" stroke-miterlimit="10" stroke-width="1.003"/>
      <path id="Path_278" data-name="Path 278" d="M740.891,2149.729a5.253,5.253,0,0,1-5.254,5.254H699.906a5.254,5.254,0,0,1-5.254-5.254h0a5.254,5.254,0,0,1,5.254-5.255h35.731a5.254,5.254,0,0,1,5.254,5.255Z" transform="translate(0.74)" fill="#1f376b" stroke="#fff" stroke-miterlimit="10" stroke-width="1.003"/>
      <path id="Path_279" data-name="Path 279" d="M740.891,2135.016a5.254,5.254,0,0,1-5.254,5.255H699.906a5.254,5.254,0,0,1-5.254-5.255h0a5.254,5.254,0,0,1,5.254-5.254h35.731a5.254,5.254,0,0,1,5.254,5.254Z" transform="translate(0.74)" fill="#1f376b" stroke="#fff" stroke-miterlimit="10" stroke-width="1.003"/>
      <path id="Path_280" data-name="Path 280" d="M810.251,2149.729a5.254,5.254,0,0,1-5.255,5.254h-35.73a5.254,5.254,0,0,1-5.255-5.254h0a5.254,5.254,0,0,1,5.255-5.255H805a5.254,5.254,0,0,1,5.255,5.255Z" transform="translate(0.814)" fill="#1f376b" stroke="#fff" stroke-miterlimit="10" stroke-width="1.003"/>
      <path id="Path_281" data-name="Path 281" d="M810.251,2135.016a5.254,5.254,0,0,1-5.255,5.255h-35.73a5.254,5.254,0,0,1-5.255-5.255h0a5.254,5.254,0,0,1,5.255-5.254H805a5.254,5.254,0,0,1,5.255,5.254Z" transform="translate(0.814)" fill="#1f376b" stroke="#fff" stroke-miterlimit="10" stroke-width="1.003"/>
      <path id="Path_282" data-name="Path 282" d="M879.61,2149.729a5.253,5.253,0,0,1-5.254,5.254H838.625a5.254,5.254,0,0,1-5.254-5.254h0a5.254,5.254,0,0,1,5.254-5.255h35.731a5.254,5.254,0,0,1,5.254,5.255Z" transform="translate(0.888)" fill="#1f376b" stroke="#fff" stroke-miterlimit="10" stroke-width="1.003"/>
      <path id="Path_283" data-name="Path 283" d="M879.61,2135.016a5.254,5.254,0,0,1-5.254,5.255H838.625a5.254,5.254,0,0,1-5.254-5.255h0a5.254,5.254,0,0,1,5.254-5.254h35.731a5.254,5.254,0,0,1,5.254,5.254Z" transform="translate(0.888)" fill="#1f376b" stroke="#fff" stroke-miterlimit="10" stroke-width="1.003"/>
      <path id="Path_284" data-name="Path 284" d="M948.969,2149.729a5.254,5.254,0,0,1-5.255,5.254H907.983a5.253,5.253,0,0,1-5.254-5.254h0a5.254,5.254,0,0,1,5.254-5.255h35.731a5.255,5.255,0,0,1,5.255,5.255Z" transform="translate(0.962)" fill="#1f376b" stroke="#fff" stroke-miterlimit="10" stroke-width="1.003"/>
      <path id="Path_285" data-name="Path 285" d="M948.969,2135.016a5.255,5.255,0,0,1-5.255,5.255H907.983a5.254,5.254,0,0,1-5.254-5.255h0a5.254,5.254,0,0,1,5.254-5.254h35.731a5.255,5.255,0,0,1,5.255,5.254Z" transform="translate(0.962)" fill="#1f376b" stroke="#fff" stroke-miterlimit="10" stroke-width="1.003"/>
      <path id="Path_286" data-name="Path 286" d="M1018.328,2149.729a5.254,5.254,0,0,1-5.255,5.254h-35.73a5.254,5.254,0,0,1-5.255-5.254h0a5.254,5.254,0,0,1,5.255-5.255h35.73a5.254,5.254,0,0,1,5.255,5.255Z" transform="translate(1.036)" fill="#1f376b" stroke="#fff" stroke-miterlimit="10" stroke-width="1.003"/>
      <path id="Path_287" data-name="Path 287" d="M1018.328,2135.016a5.254,5.254,0,0,1-5.255,5.255h-35.73a5.254,5.254,0,0,1-5.255-5.255h0a5.254,5.254,0,0,1,5.255-5.254h35.73a5.254,5.254,0,0,1,5.255,5.254Z" transform="translate(1.036)" fill="#1f376b" stroke="#fff" stroke-miterlimit="10" stroke-width="1.003"/>
      <path id="Path_288" data-name="Path 288" d="M1087.687,2149.729a5.254,5.254,0,0,1-5.254,5.254H1046.7a5.254,5.254,0,0,1-5.254-5.254h0a5.254,5.254,0,0,1,5.254-5.255h35.731a5.254,5.254,0,0,1,5.254,5.255Z" transform="translate(1.11)" fill="#1f376b" stroke="#fff" stroke-miterlimit="10" stroke-width="1.003"/>
      <path id="Path_289" data-name="Path 289" d="M1087.687,2135.016a5.254,5.254,0,0,1-5.254,5.255H1046.7a5.254,5.254,0,0,1-5.254-5.255h0a5.254,5.254,0,0,1,5.254-5.254h35.731a5.254,5.254,0,0,1,5.254,5.254Z" transform="translate(1.11)" fill="#1f376b" stroke="#fff" stroke-miterlimit="10" stroke-width="1.003"/>
      <path id="Path_290" data-name="Path 290" d="M1157.047,2149.729a5.254,5.254,0,0,1-5.255,5.254h-35.73a5.254,5.254,0,0,1-5.255-5.254h0a5.254,5.254,0,0,1,5.255-5.255h35.73a5.254,5.254,0,0,1,5.255,5.255Z" transform="translate(1.184)" fill="#1f376b" stroke="#fff" stroke-miterlimit="10" stroke-width="1.003"/>
      <path id="Path_291" data-name="Path 291" d="M1157.047,2135.016a5.254,5.254,0,0,1-5.255,5.255h-35.73a5.254,5.254,0,0,1-5.255-5.255h0a5.254,5.254,0,0,1,5.255-5.254h35.73a5.254,5.254,0,0,1,5.255,5.254Z" transform="translate(1.184)" fill="#1f376b" stroke="#fff" stroke-miterlimit="10" stroke-width="1.003"/>
      <path id="Path_292" data-name="Path 292" d="M1226.406,2149.729a5.254,5.254,0,0,1-5.254,5.254h-35.731a5.254,5.254,0,0,1-5.254-5.254h0a5.254,5.254,0,0,1,5.254-5.255h35.731a5.254,5.254,0,0,1,5.254,5.255Z" transform="translate(1.258)" fill="#1f376b" stroke="#fff" stroke-miterlimit="10" stroke-width="1.003"/>
      <path id="Path_293" data-name="Path 293" d="M1226.406,2135.016a5.254,5.254,0,0,1-5.254,5.255h-35.731a5.254,5.254,0,0,1-5.254-5.255h0a5.254,5.254,0,0,1,5.254-5.254h35.731a5.254,5.254,0,0,1,5.254,5.254Z" transform="translate(1.258)" fill="#1f376b" stroke="#fff" stroke-miterlimit="10" stroke-width="1.003"/>
      <path id="Path_294" data-name="Path 294" d="M1295.765,2149.729a5.254,5.254,0,0,1-5.254,5.254H1254.78a5.254,5.254,0,0,1-5.254-5.254h0a5.254,5.254,0,0,1,5.254-5.255h35.731a5.254,5.254,0,0,1,5.254,5.255Z" transform="translate(1.332)" fill="#1f376b" stroke="#fff" stroke-miterlimit="10" stroke-width="1.003"/>
      <path id="Path_295" data-name="Path 295" d="M1295.765,2135.016a5.254,5.254,0,0,1-5.254,5.255H1254.78a5.254,5.254,0,0,1-5.254-5.255h0a5.254,5.254,0,0,1,5.254-5.254h35.731a5.254,5.254,0,0,1,5.254,5.254Z" transform="translate(1.332)" fill="#1f376b" stroke="#fff" stroke-miterlimit="10" stroke-width="1.003"/>
      <path id="Path_296" data-name="Path 296" d="M1365.125,2149.729a5.254,5.254,0,0,1-5.255,5.254h-35.73a5.254,5.254,0,0,1-5.255-5.254h0a5.254,5.254,0,0,1,5.255-5.255h35.73a5.254,5.254,0,0,1,5.255,5.255Z" transform="translate(1.406)" fill="#1f376b" stroke="#fff" stroke-miterlimit="10" stroke-width="1.003"/>
      <path id="Path_297" data-name="Path 297" d="M1365.125,2135.016a5.254,5.254,0,0,1-5.255,5.255h-35.73a5.254,5.254,0,0,1-5.255-5.255h0a5.254,5.254,0,0,1,5.255-5.254h35.73a5.254,5.254,0,0,1,5.255,5.254Z" transform="translate(1.406)" fill="#1f376b" stroke="#fff" stroke-miterlimit="10" stroke-width="1.003"/>
      <path id="Path_298" data-name="Path 298" d="M1434.484,2149.729a5.254,5.254,0,0,1-5.254,5.254H1393.5a5.254,5.254,0,0,1-5.254-5.254h0a5.254,5.254,0,0,1,5.254-5.255h35.731a5.254,5.254,0,0,1,5.254,5.255Z" transform="translate(1.48)" fill="#1f376b" stroke="#fff" stroke-miterlimit="10" stroke-width="1.003"/>
      <path id="Path_299" data-name="Path 299" d="M1434.484,2135.016a5.254,5.254,0,0,1-5.254,5.255H1393.5a5.254,5.254,0,0,1-5.254-5.255h0a5.254,5.254,0,0,1,5.254-5.254h35.731a5.254,5.254,0,0,1,5.254,5.254Z" transform="translate(1.48)" fill="#1f376b" stroke="#fff" stroke-miterlimit="10" stroke-width="1.003"/>
      <path id="Path_300" data-name="Path 300" d="M1503.844,2149.729a5.254,5.254,0,0,1-5.255,5.254h-35.73a5.254,5.254,0,0,1-5.255-5.254h0a5.254,5.254,0,0,1,5.255-5.255h35.73a5.254,5.254,0,0,1,5.255,5.255Z" transform="translate(1.554)" fill="#1f376b" stroke="#fff" stroke-miterlimit="10" stroke-width="1.003"/>
      <path id="Path_301" data-name="Path 301" d="M1503.844,2135.016a5.254,5.254,0,0,1-5.255,5.255h-35.73a5.254,5.254,0,0,1-5.255-5.255h0a5.254,5.254,0,0,1,5.255-5.254h35.73a5.254,5.254,0,0,1,5.255,5.254Z" transform="translate(1.554)" fill="#1f376b" stroke="#fff" stroke-miterlimit="10" stroke-width="1.003"/>
      <path id="Path_302" data-name="Path 302" d="M1573.2,2149.729a5.254,5.254,0,0,1-5.254,5.254h-35.731a5.254,5.254,0,0,1-5.255-5.254h0a5.255,5.255,0,0,1,5.255-5.255h35.731a5.254,5.254,0,0,1,5.254,5.255Z" transform="translate(1.628)" fill="#1f376b" stroke="#fff" stroke-miterlimit="10" stroke-width="1.003"/>
      <path id="Path_303" data-name="Path 303" d="M1573.2,2135.016a5.254,5.254,0,0,1-5.254,5.255h-35.731a5.255,5.255,0,0,1-5.255-5.255h0a5.255,5.255,0,0,1,5.255-5.254h35.731a5.254,5.254,0,0,1,5.254,5.254Z" transform="translate(1.628)" fill="#1f376b" stroke="#fff" stroke-miterlimit="10" stroke-width="1.003"/>
      <path id="Path_304" data-name="Path 304" d="M1642.562,2149.729a5.254,5.254,0,0,1-5.254,5.254h-35.731a5.254,5.254,0,0,1-5.254-5.254h0a5.254,5.254,0,0,1,5.254-5.255h35.731a5.254,5.254,0,0,1,5.254,5.255Z" transform="translate(1.998)" fill="#1f376b" stroke="#fff" stroke-miterlimit="10" stroke-width="1.003"/>
      <path id="Path_305" data-name="Path 305" d="M1642.562,2135.016a5.254,5.254,0,0,1-5.254,5.255h-35.731a5.254,5.254,0,0,1-5.254-5.255h0a5.254,5.254,0,0,1,5.254-5.254h35.731a5.254,5.254,0,0,1,5.254,5.254Z" transform="translate(1.998)" fill="#1f376b" stroke="#fff" stroke-miterlimit="10" stroke-width="1.003"/>
      <path id="Path_306" data-name="Path 306" d="M1711.922,2149.729a5.254,5.254,0,0,1-5.255,5.254h-35.73a5.254,5.254,0,0,1-5.255-5.254h0a5.254,5.254,0,0,1,5.255-5.255h35.73a5.254,5.254,0,0,1,5.255,5.255Z" transform="translate(1.998)" fill="#1f376b" stroke="#fff" stroke-miterlimit="10" stroke-width="1.003"/>
      <path id="Path_307" data-name="Path 307" d="M1711.922,2135.016a5.254,5.254,0,0,1-5.255,5.255h-35.73a5.254,5.254,0,0,1-5.255-5.255h0a5.254,5.254,0,0,1,5.255-5.254h35.73a5.254,5.254,0,0,1,5.255,5.254Z" transform="translate(1.998)" fill="#1f376b" stroke="#fff" stroke-miterlimit="10" stroke-width="1.003"/>
      <path id="Path_308" data-name="Path 308" d="M1781.281,2149.729a5.254,5.254,0,0,1-5.254,5.254H1740.3a5.254,5.254,0,0,1-5.254-5.254h0a5.254,5.254,0,0,1,5.254-5.255h35.731a5.254,5.254,0,0,1,5.254,5.255Z" transform="translate(1.998)" fill="#1f376b" stroke="#fff" stroke-miterlimit="10" stroke-width="1.003"/>
      <path id="Path_309" data-name="Path 309" d="M1781.281,2135.016a5.254,5.254,0,0,1-5.254,5.255H1740.3a5.254,5.254,0,0,1-5.254-5.255h0a5.254,5.254,0,0,1,5.254-5.254h35.731a5.254,5.254,0,0,1,5.254,5.254Z" transform="translate(1.998)" fill="#1f376b" stroke="#fff" stroke-miterlimit="10" stroke-width="1.003"/>
      <path id="Path_310" data-name="Path 310" d="M1850.641,2149.729a5.254,5.254,0,0,1-5.255,5.254h-35.73a5.254,5.254,0,0,1-5.255-5.254h0a5.254,5.254,0,0,1,5.255-5.255h35.73a5.255,5.255,0,0,1,5.255,5.255Z" transform="translate(1.998)" fill="#1f376b" stroke="#fff" stroke-miterlimit="10" stroke-width="1.003"/>
      <path id="Path_311" data-name="Path 311" d="M1850.641,2135.016a5.255,5.255,0,0,1-5.255,5.255h-35.73a5.254,5.254,0,0,1-5.255-5.255h0a5.254,5.254,0,0,1,5.255-5.254h35.73a5.255,5.255,0,0,1,5.255,5.254Z" transform="translate(1.998)" fill="#1f376b" stroke="#fff" stroke-miterlimit="10" stroke-width="1.003"/>
      <path id="Path_312" data-name="Path 312" d="M1920,2149.729a5.254,5.254,0,0,1-5.254,5.254h-35.731a5.254,5.254,0,0,1-5.255-5.254h0a5.255,5.255,0,0,1,5.255-5.255h35.731a5.254,5.254,0,0,1,5.254,5.255Z" transform="translate(1.998)" fill="#1f376b" stroke="#fff" stroke-miterlimit="10" stroke-width="1.003"/>
      <path id="Path_313" data-name="Path 313" d="M1920,2135.016a5.254,5.254,0,0,1-5.254,5.255h-35.731a5.255,5.255,0,0,1-5.255-5.255h0a5.255,5.255,0,0,1,5.255-5.254h35.731a5.254,5.254,0,0,1,5.254,5.254Z" transform="translate(1.998)" fill="#1f376b" stroke="#fff" stroke-miterlimit="10" stroke-width="1.003"/>
    </g>
  </g>
</svg>
